# Blender 5.0.0
# www.blender.org
mtllib fitting2.mtl
o Fitting_çµæœ
v -2.526070 3.019936 0.406548
v -2.959708 1.640401 -0.162191
v -2.076608 1.640400 -0.164413
v -2.526070 3.019936 0.406548
v -2.073739 1.647894 0.975240
v -2.994225 1.647895 0.977556
v -2.526070 3.019936 0.406548
v -2.073739 1.647894 0.975240
v -2.073739 1.647894 0.975240
v -2.526070 3.019936 0.406548
v -2.076608 1.640400 -0.164413
v -2.073739 1.647894 0.975240
v -2.959708 1.640401 -0.162191
v -2.526070 3.019936 0.406548
v -2.994225 1.647895 0.977556
v -2.959708 1.640401 -0.162191
v 0.997113 1.792485 0.483565
v -1.928277 1.411684 0.976702
v -1.929500 1.792488 0.490932
v 0.997113 1.792485 0.483565
v -1.928277 1.411684 0.976702
v 0.997113 1.792485 0.483565
v 0.998336 1.411681 0.969336
v -1.928277 1.411684 0.976702
v 0.997113 1.792485 0.483565
v -1.930723 1.405295 0.005162
v 0.995891 1.405293 -0.002205
v 0.997113 1.792485 0.483565
v -1.930723 1.405295 0.005162
v 0.997113 1.792485 0.483565
v -1.929500 1.792488 0.490932
v -1.930723 1.405295 0.005162
v 0.994649 0.996598 -1.028938
v 0.999689 1.009765 0.973353
v -3.004979 1.009769 0.983433
v 0.994649 0.996598 -1.028938
v -3.004979 1.009769 0.983433
v -3.010019 0.996602 -1.018858
v 0.994649 0.996598 -1.028938
v -3.004979 1.009769 0.983433
v -0.974614 0.279154 -1.019093
v -0.999364 0.165372 -1.018350
v -1.001258 0.161424 -1.618680
v -0.974614 0.279154 -1.019093
v -0.307691 0.857044 -1.024226
v -0.831998 0.157969 -2.144429
v -0.635014 0.156671 -2.342403
v -0.307691 0.857044 -1.024226
v -0.307691 0.857044 -1.024226
v -0.635014 0.156671 -2.342403
v -0.386493 0.155837 -2.469817
v -0.307691 0.857044 -1.024226
v 0.812466 0.157963 -2.149346
v 0.178514 0.865351 -1.025499
v 0.614489 0.156665 -2.346325
v 0.812466 0.157963 -2.149346
v 0.178514 0.865351 -1.025499
v 0.812466 0.157963 -2.149346
v 0.294662 0.857044 -1.025742
v 0.178514 0.865351 -1.025499
v 0.294662 0.857044 -1.025742
v 0.812466 0.157963 -2.149346
v 0.939883 0.159599 -1.900831
v 0.294662 0.857044 -1.025742
v 0.961602 0.279153 -1.023967
v 0.984371 0.161417 -1.624450
v 0.986355 0.165370 -1.023349
v 0.961602 0.279153 -1.023967
v -0.933922 0.388256 -1.019848
v -0.974614 0.279154 -1.019093
v -1.001258 0.161424 -1.618680
v -0.933922 0.388256 -1.019848
v -0.831998 0.157969 -2.144429
v -0.307691 0.857044 -1.024226
v -0.958161 0.159606 -1.895276
v -0.831998 0.157969 -2.144429
v 0.614489 0.156665 -2.346325
v 0.178514 0.865351 -1.025499
v 0.365330 0.155832 -2.472485
v 0.614489 0.156665 -2.346325
v 0.294662 0.857044 -1.025742
v 0.939883 0.159599 -1.900831
v 0.984371 0.161417 -1.624450
v 0.294662 0.857044 -1.025742
v -0.878117 0.490456 -1.020599
v -0.933922 0.388256 -1.019848
v -1.001258 0.161424 -1.618680
v -0.878117 0.490456 -1.020599
v -0.307691 0.857044 -1.024226
v -0.110093 0.155548 -2.514307
v 0.178514 0.865351 -1.025499
v -0.307691 0.857044 -1.024226
v 0.920907 0.388254 -1.024516
v 0.984371 0.161417 -1.624450
v 0.961602 0.279153 -1.023967
v 0.920907 0.388254 -1.024516
v -0.808335 0.583674 -1.021332
v -0.878117 0.490456 -1.020599
v -1.001258 0.161424 -1.618680
v -0.808335 0.583674 -1.021332
v 0.365330 0.155832 -2.472485
v 0.178514 0.865351 -1.025499
v 0.088741 0.155544 -2.515579
v 0.365330 0.155832 -2.472485
v -0.725997 0.666012 -1.022031
v -0.808335 0.583674 -1.021332
v -1.001258 0.161424 -1.618680
v -0.725997 0.666012 -1.022031
v 0.865099 0.490455 -1.024987
v 0.984371 0.161417 -1.624450
v 0.920907 0.388254 -1.024516
v 0.865099 0.490455 -1.024987
v -0.632779 0.735794 -1.022683
v -0.725997 0.666012 -1.022031
v -1.001258 0.161424 -1.618680
v -0.632779 0.735794 -1.022683
v 0.795314 0.583673 -1.025368
v 0.984371 0.161417 -1.624450
v 0.865099 0.490455 -1.024987
v 0.795314 0.583673 -1.025368
v -0.530578 0.791600 -1.023274
v -0.632779 0.735794 -1.022683
v -1.001258 0.161424 -1.618680
v -0.530578 0.791600 -1.023274
v 0.712974 0.666011 -1.025653
v 0.984371 0.161417 -1.624450
v 0.795314 0.583673 -1.025368
v 0.712974 0.666011 -1.025653
v -0.421475 0.832292 -1.023791
v -0.530578 0.791600 -1.023274
v -1.001258 0.161424 -1.618680
v -0.421475 0.832292 -1.023791
v 0.619754 0.735793 -1.025836
v 0.984371 0.161417 -1.624450
v 0.712974 0.666011 -1.025653
v 0.619754 0.735793 -1.025836
v -0.307691 0.857044 -1.024226
v -0.421475 0.832292 -1.023791
v -1.001258 0.161424 -1.618680
v -0.307691 0.857044 -1.024226
v 0.517551 0.791599 -1.025912
v 0.984371 0.161417 -1.624450
v 0.619754 0.735793 -1.025836
v 0.517551 0.791599 -1.025912
v -0.958161 0.159606 -1.895276
v -0.307691 0.857044 -1.024226
v -1.001258 0.161424 -1.618680
v -0.958161 0.159606 -1.895276
v 0.408447 0.832292 -1.025880
v 0.984371 0.161417 -1.624450
v 0.517551 0.791599 -1.025912
v 0.408447 0.832292 -1.025880
v -0.110093 0.155548 -2.514307
v -0.307691 0.857044 -1.024226
v -0.386493 0.155837 -2.469817
v -0.110093 0.155548 -2.514307
v 0.294662 0.857044 -1.025742
v 0.984371 0.161417 -1.624450
v 0.408447 0.832292 -1.025880
v 0.294662 0.857044 -1.025742
v 0.088741 0.155544 -2.515579
v 0.178514 0.865351 -1.025499
v -0.110093 0.155548 -2.514307
v 0.088741 0.155544 -2.515579
v -0.964743 -0.285211 -1.893905
v -0.689479 -0.285217 -1.894672
v -1.008424 -0.280896 -1.234659
v -0.964743 -0.285211 -1.893905
vn 0.0023 -0.3818 0.9243
vn -0.0023 -0.3836 -0.9235
vn -0.9503 -0.3114 0.0044
vn 0.9498 -0.3113 0.0308
vn -0.0016 -0.7870 -0.6169
vn 0.0016 -0.7820 0.6233
vn -0.0000 -1.0000 0.0066
vn 0.9771 -0.2126 -0.0017
vn 0.3619 -0.8575 0.3657
vn 0.2110 -0.8840 0.4173
vn -0.3452 -0.8697 0.3527
vn -0.0604 -0.8598 0.5071
vn -0.5147 -0.8140 0.2693
vn -0.9771 -0.2125 0.0046
vn 0.9367 -0.3492 0.0269
vn 0.5159 -0.8141 0.2666
vn -0.2044 -0.8891 0.4096
vn -0.6565 -0.7461 0.1106
vn 0.8750 -0.4772 0.0824
vn 0.0166 -0.9038 0.4277
vn -0.9365 -0.3491 0.0329
vn 0.7906 -0.5905 0.1621
vn -0.0664 -0.8992 0.4324
vn 0.6837 -0.6815 0.2609
vn -0.8744 -0.4771 0.0879
vn 0.5583 -0.7424 0.3703
vn -0.7896 -0.5904 0.1670
vn 0.4226 -0.7689 0.4797
vn -0.6823 -0.6814 0.2650
vn 0.2871 -0.7624 0.5800
vn -0.5564 -0.7423 0.3733
vn 0.1611 -0.7291 0.6652
vn -0.4202 -0.7689 0.4818
vn 0.6567 -0.7464 0.1072
vn -0.2842 -0.7625 0.5812
vn 0.0687 -0.8991 0.4324
vn -0.1579 -0.7294 0.6656
vn 0.0027 -0.9029 0.4299
vn -0.0000 -1.0000 0.0065
s 0
f 1//1 2//1 3//1 4//1
f 5//2 6//2 7//2 8//2
f 9//3 10//3 11//3 12//3
f 13//4 14//4 15//4 16//4
f 17//5 18//5 19//5 20//5
f 21//5 22//5 23//5 24//5
f 25//6 26//6 27//6 28//6
f 29//6 30//6 31//6 32//6
f 33//7 34//7 35//7 36//7
f 37//7 38//7 39//7 40//7
f 41//8 42//8 43//8 44//8
f 45//9 46//9 47//9 48//9
f 49//10 50//10 51//10 52//10
f 53//11 54//11 55//11 56//11
f 57//12 58//12 59//12 60//12
f 61//13 62//13 63//13 64//13
f 65//14 66//14 67//14 68//14
f 69//15 70//15 71//15 72//15
f 73//16 74//16 75//16 76//16
f 77//17 78//17 79//17 80//17
f 81//18 82//18 83//18 84//18
f 85//19 86//19 87//19 88//19
f 89//20 90//20 91//20 92//20
f 93//21 94//21 95//21 96//21
f 97//22 98//22 99//22 100//22
f 101//23 102//23 103//23 104//23
f 105//24 106//24 107//24 108//24
f 109//25 110//25 111//25 112//25
f 113//26 114//26 115//26 116//26
f 117//27 118//27 119//27 120//27
f 121//28 122//28 123//28 124//28
f 125//29 126//29 127//29 128//29
f 129//30 130//30 131//30 132//30
f 133//31 134//31 135//31 136//31
f 137//32 138//32 139//32 140//32
f 141//33 142//33 143//33 144//33
f 145//34 146//34 147//34 148//34
f 149//35 150//35 151//35 152//35
f 153//36 154//36 155//36 156//36
f 157//37 158//37 159//37 160//37
f 161//38 162//38 163//38 164//38
f 165//39 166//39 167//39 168//39
