# Blender 5.0.0
# www.blender.org
mtllib fitting3.mtl
o roof_+X
v 0.004552 0.994665 -1.022354
v 0.010341 0.947878 -1.902434
v 0.011992 0.819260 -2.153291
v 0.013303 0.619418 -2.352126
v 0.014144 0.367911 -2.479475
v 0.014434 0.089360 -2.522874
v 0.008510 0.992678 -1.624112
v -0.165370 0.986355 -1.023349
v -0.279153 0.961602 -1.023967
v -0.388254 0.920907 -1.024516
v -0.490455 0.865099 -1.024987
v -0.583673 0.795314 -1.025368
v -0.666011 0.712974 -1.025653
v -0.735793 0.619754 -1.025836
v -0.791599 0.517551 -1.025912
v -0.832292 0.408447 -1.025880
v -0.857044 0.294662 -1.025742
v -0.852700 0.274388 -1.686888
v -0.827713 0.383863 -1.722614
v -0.786795 0.488834 -1.756770
v -0.730778 0.587166 -1.788659
v -0.660804 0.676856 -1.817632
v -0.578295 0.756077 -1.843100
v -0.484933 0.823219 -1.864545
v -0.382618 0.876913 -1.881529
v -0.273432 0.916067 -1.893707
v -0.159598 0.939883 -1.900831
v -0.157962 0.812466 -2.149346
v -0.271841 0.792227 -2.135245
v -0.381102 0.758954 -2.111597
v -0.483520 0.713325 -2.078882
v -0.577010 0.656269 -2.037767
v -0.659670 0.588947 -1.989090
v -0.729816 0.512729 -1.933840
v -0.786020 0.429168 -1.873143
v -0.827139 0.339964 -1.808234
v -0.852335 0.246934 -1.740434
v -0.156664 0.614489 -2.346325
v -0.270580 0.599808 -2.326694
v -0.379901 0.575673 -2.293954
v -0.482403 0.542576 -2.248771
v -0.575997 0.501190 -2.192065
v -0.658780 0.452357 -2.124991
v -0.729065 0.397073 -2.048914
v -0.785422 0.336461 -1.965383
v -0.826704 0.271757 -1.876098
v -0.852070 0.204277 -1.782876
v -0.155831 0.365330 -2.472485
v -0.269770 0.357644 -2.449312
v -0.379129 0.345009 -2.410749
v -0.481682 0.327683 -2.357580
v -0.575341 0.306018 -2.290889
v -0.658200 0.280455 -2.212033
v -0.728571 0.251515 -2.122616
v -0.785023 0.219786 -2.024460
v -0.826406 0.185915 -1.919563
v -0.851877 0.150591 -1.810060
v -0.155543 0.088741 -2.515579
v -0.269488 0.086901 -2.491495
v -0.378857 0.083878 -2.451434
v -0.481425 0.079732 -2.396212
v -0.575102 0.074549 -2.326953
v -0.657981 0.068434 -2.245066
v -0.728376 0.061510 -2.152220
v -0.161416 0.984371 -1.624450
v -0.275212 0.959623 -1.623110
v -0.384335 0.918939 -1.620441
v -0.486564 0.863146 -1.616498
v -0.579818 0.793379 -1.611361
v -0.662199 0.711060 -1.605133
v -0.732030 0.617864 -1.597943
v -0.853450 0.292858 -1.572139
v -1.009765 0.999689 0.973353
v -1.009770 -3.004979 0.983433
v 0.992528 -3.004948 0.996601
v 1.005696 -3.009988 -1.005690
v 0.279454 -0.687261 -1.013318
v 0.285218 -0.689479 -1.894672
v 0.285212 -0.964743 -1.893905
v 1.011478 -0.965520 -1.889754
v 1.011479 -0.689470 -1.890541
v 1.013134 -0.838796 -2.141756
v 0.284712 -0.690489 -2.295619
v 0.759748 -0.690481 -2.292496
v 0.276191 -0.687228 -0.999999
v 0.285966 -0.313477 -2.487273
v 0.286178 -0.110697 -2.519913
v 0.014429 -0.110781 -2.521594
v 0.286182 0.089364 -2.521088
v 0.014434 0.089360 -2.522874
v 0.014144 0.367911 -2.479475
v 0.285893 0.367916 -2.477689
v 0.285051 0.619422 -2.350339
v 0.013303 0.619418 -2.352126
v 0.284659 0.679135 -2.290928
v 0.276192 0.682375 -1.003446
v 1.005592 0.682387 -0.998649
v 0.279456 0.682342 -1.016765
v 0.392736 0.682343 -1.016021
v 1.011484 0.680132 -1.894446
v 0.280921 0.993644 -1.240373
v 0.312054 0.679135 -2.290748
v 0.285172 0.947009 -1.898898
v 1.011485 0.948600 -1.895212
v 0.010341 0.947878 -1.902434
v 0.008510 0.992678 -1.624112
v 0.011992 0.819260 -2.153291
v 1.013141 0.819275 -2.146706
v 1.014059 0.679146 -2.286130
v 0.004552 0.994665 -1.022354
v 0.279456 0.994677 -1.017552
v 0.992533 0.999720 0.986521
v -0.996598 0.994649 -1.028938
v 0.279476 0.994669 -1.020546
v 1.005680 0.994688 -1.012775
v 1.005680 0.682353 -1.011989
v 1.014112 -0.690477 -2.290821
v 0.968377 0.998374 0.985147
v 0.974766 0.995928 0.013607
v -1.411681 0.998336 0.969335
v -1.792485 0.997113 0.483564
v -1.405293 0.995891 -0.002205
v 0.964401 -2.073698 0.992604
v -1.647895 -2.073739 0.975239
v 0.967411 -2.076567 -0.147050
v -1.640400 -2.076608 -0.164414
v -1.640401 -2.959708 -0.162192
v -3.019936 -2.526070 0.406547
v -1.647896 -2.994225 0.977555
vn -0.0435 0.4512 -0.8914
vn -0.2099 0.8695 -0.4472
vn -0.3469 0.8337 -0.4297
vn -0.4768 0.7809 -0.4035
vn -0.5970 0.7123 -0.3691
vn -0.7051 0.6291 -0.3272
vn -0.7988 0.5332 -0.2787
vn -0.8763 0.4264 -0.2244
vn -0.8763 0.4264 -0.2245
vn -0.9359 0.3109 -0.1657
vn -0.0446 0.7045 -0.7083
vn -0.0461 0.8888 -0.4560
vn -0.2084 0.6891 -0.6940
vn -0.3454 0.6608 -0.6664
vn -0.4754 0.6189 -0.6252
vn -0.4755 0.6189 -0.6252
vn -0.5958 0.5645 -0.5713
vn -0.7040 0.4986 -0.5058
vn -0.7978 0.4226 -0.4300
vn -0.8755 0.3380 -0.3454
vn -0.9353 0.2465 -0.2538
vn -0.9353 0.2465 -0.2537
vn -0.0479 0.9861 -0.1590
vn -0.2073 0.4414 -0.8730
vn -0.3444 0.4232 -0.8380
vn -0.4745 0.3964 -0.7860
vn -0.5948 0.3615 -0.7179
vn -0.5948 0.3615 -0.7180
vn -0.7031 0.3193 -0.6353
vn -0.7971 0.2706 -0.5398
vn -0.8749 0.2164 -0.4333
vn -0.8749 0.2164 -0.4332
vn -0.9349 0.1578 -0.3179
vn -0.9349 0.1577 -0.3179
vn -0.9759 0.0959 -0.1961
vn -0.9759 0.0958 -0.1962
vn -0.7968 0.0922 -0.5972
vn -0.7027 0.1088 -0.7031
vn -0.5944 0.1232 -0.7947
vn -0.4739 0.1351 -0.8701
vn -0.3439 0.1442 -0.9279
vn -0.2068 0.1504 -0.9668
vn -0.8955 0.4445 -0.0241
vn -0.0429 0.1538 -0.9872
vn -0.2125 0.9771 -0.0046
vn -0.2126 0.9771 -0.0046
vn -0.3495 0.9369 -0.0054
vn -0.3494 0.9369 -0.0054
vn -0.4792 0.8777 -0.0060
vn -0.5993 0.8005 -0.0066
vn -0.7071 0.7071 -0.0070
vn -0.8005 0.5993 -0.0072
vn -0.9768 0.1696 -0.1303
vn -0.9769 0.1696 -0.1303
vn -0.9769 0.1697 -0.1303
vn -0.9353 0.3534 -0.0193
vn -0.9352 0.3535 -0.0193
vn -0.0488 0.9988 -0.0036
vn -0.2116 0.9647 -0.1567
vn -0.3486 0.9250 -0.1512
vn -0.4784 0.8665 -0.1426
vn -0.5985 0.7903 -0.1311
vn -0.7064 0.6981 -0.1170
vn -0.7999 0.5916 -0.1005
vn -0.0000 -1.0000 0.0025
vn 0.0024 -0.8943 -0.4475
vn 0.0016 -0.8934 -0.4493
vn 0.0038 -0.8931 -0.4499
vn 0.0062 -0.1589 -0.9873
vn -0.0000 1.0000 -0.0025
vn 0.0047 0.7053 -0.7089
vn 0.0046 0.7053 -0.7089
vn 0.0028 0.8909 -0.4541
vn 0.0059 0.8890 -0.4579
vn 0.0947 0.9931 -0.0697
vn 0.0052 0.9873 -0.1589
vn -0.9732 0.2295 -0.0140
vn 0.0065 0.1539 -0.9881
vn 0.0001 -1.0000 0.0025
vn -0.0000 1.0000 -0.0026
vn 0.9400 0.3410 0.0054
vn 0.0047 -0.7089 -0.7053
vn 0.0059 0.4517 -0.8921
vn -0.0002 1.0000 -0.0025
vn -0.3114 0.9503 -0.0044
vn -0.3113 -0.9498 -0.0308
vn -0.7988 0.5332 -0.2786
vn -0.9359 0.3109 -0.1656
vn -0.7039 0.4986 -0.5058
vn -0.9353 0.3535 -0.0193
vn -0.5985 0.7903 -0.1312
vn 0.0043 0.8926 -0.4508
vt 0.685997 0.365471
vt 0.812773 0.281083
vt 0.687284 0.280663
vt 0.489494 0.608588
vt 0.431197 0.724422
vt 0.432778 0.603915
vt 0.376925 0.711551
vt 0.378431 0.596767
vt 0.326156 0.694225
vt 0.327558 0.587289
vt 0.279922 0.672796
vt 0.281195 0.575674
vt 0.880958 0.536346
vt 0.797569 0.609187
vt 0.841431 0.523639
vt 0.759541 0.581620
vt 0.796681 0.509183
vt 0.717848 0.551335
vt 0.747619 0.493272
vt 0.673341 0.518949
vt 0.695244 0.476230
vt 0.810313 0.365887
vt 0.912483 0.281737
vt 0.487867 0.732576
vt 0.574252 0.611059
vt 0.572609 0.736214
vt 0.909093 0.366535
vt 0.802988 0.422724
vt 0.898994 0.423354
vt 0.790946 0.477270
vt 0.882393 0.477869
vt 0.774433 0.528412
vt 0.859627 0.528970
vt 0.859627 0.653988
vt 0.753783 0.710460
vt 0.831159 0.633474
vt 0.729419 0.676994
vt 0.701834 0.639036
vt 0.671593 0.597358
vt 0.639309 0.552810
vt 0.576074 0.472200
vt 0.682162 0.422320
vt 0.675858 0.476884
vt 0.667213 0.528053
vt 0.656403 0.574783
vt 0.753783 0.575111
vt 0.643649 0.720423
vt 0.629209 0.675809
vt 0.613378 0.626835
vt 0.596479 0.574497
vt 0.578854 0.519860
vt 0.605640 0.506298
vt 0.537862 0.736905
vt 0.534408 0.690579
vt 0.643649 0.616125
vt 0.540913 0.574664
vt 0.537862 0.616016
vt 0.543499 0.527924
vt 0.545568 0.476749
vt 0.547076 0.422180
vt 0.547994 0.365327
vt 0.761947 0.128614
vt 0.811997 0.414026
vt 0.548303 0.280518
vt 0.495241 0.170802
vt 0.434550 0.468911
vt 0.438475 0.169991
vt 0.380141 0.466507
vt 0.384044 0.169193
vt 0.329183 0.463535
vt 0.333057 0.168423
vt 0.282713 0.460056
vt 0.286552 0.167697
vt 0.241679 0.456140
vt 0.245475 0.167030
vt 0.859452 0.128485
vt 0.812940 0.128576
vt 0.626923 0.485121
vt 0.640622 0.458404
vt 0.707510 0.128599
vt 0.491304 0.470698
vt 0.580016 0.171976
vt 0.899570 0.420721
vt 0.858497 0.417614
vt -4.461730 2.609791
vt -9.423500 -2.351978
vt -4.461730 -2.351978
vt 1.060098 0.003868
vt 1.340199 0.004155
vt 1.339665 0.725348
vt 0.219246 0.997150
vt 0.219432 0.727298
vt 0.423384 0.727512
vt 0.749737 0.245026
vt 0.264202 -0.240509
vt 0.749737 -0.240509
vt -0.622754 0.726462
vt -0.539377 0.996397
vt -0.819315 0.996119
vt -1.099253 0.995840
vt -1.099426 0.724534
vt -1.759678 0.724337
vt -1.103804 0.719296
vt -1.379189 0.995638
vt 0.649837 0.401151
vt 0.462403 0.411956
vt 0.625000 0.411956
vt 0.623924 0.361839
vt 0.020766 0.727102
vt -0.259440 0.996675
vt -0.259172 0.726823
vt 0.623913 0.998333
vt 0.625000 1.000000
vt 0.625000 0.839061
vt 10.423574 0.128907
vt 5.461807 -2.351978
vt 0.267230 0.228513
vt 0.267230 0.228700
vt 5.273873 -0.567085
vt 4.494105 -0.849904
vt 0.851021 0.256239
vt 0.857196 0.000000
vt -0.539109 0.726545
vt 0.615623 0.839061
vt 0.375337 0.839061
vt 0.375337 0.888023
vt 0.375338 1.000000
vt 0.585139 0.998333
vt 0.375338 0.998333
vt 0.625000 0.250000
vt 0.623913 0.251667
vt 0.336855 0.906112
vt 0.331457 0.093555
vt 0.663143 0.091374
vt 1.007063 -0.005836
vt 0.503433 0.497793
vt 0.264202 1.216096
vt 0.264202 0.730561
vt 0.774433 0.738753
vt 0.656403 0.759768
vt 0.264202 0.245026
vt -0.818327 0.001959
vt -0.622728 0.699259
vt -0.622035 0.002154
vt -1.099150 0.001680
vt 0.650738 0.128529
vt 0.375337 0.361920
vt 0.000000 0.000000
vt 0.020497 0.996953
vt -1.977971 0.725317
vt 10.423573 2.609791
vt 5.461807 2.609791
vt 10.416151 -2.351976
vt 0.668542 0.903931
vt 0.495198 1.068355
s 1
usemtl HallRoof.001
f 48/1/1 4/2/1 5/3/1
f 27/4/2 29/5/2 26/6/2
f 26/6/3 30/7/3 25/8/3
f 25/8/4 31/9/4 24/10/4
f 24/10/5 32/11/5 23/12/5
f 23/13/6 33/14/6 22/15/6
f 22/15/7 34/16/7 21/17/7
f 21/17/8 35/18/8 20/19/9
f 20/19/10 36/20/10 19/21/10
f 38/22/11 3/23/11 4/2/11
f 28/24/12 2/25/12 3/26/12
f 28/27/13 39/28/13 29/29/13
f 29/29/14 40/30/14 30/31/14
f 30/31/15 41/32/15 31/33/16
f 31/34/17 42/35/17 32/36/17
f 32/36/18 43/37/18 33/14/18
f 33/14/19 44/38/19 34/16/19
f 34/16/20 45/39/20 35/18/20
f 35/18/21 46/40/21 36/20/22
f 27/4/23 7/41/23 2/25/23
f 38/22/24 49/42/24 39/28/24
f 39/28/25 50/43/25 40/30/25
f 40/30/26 51/44/26 41/32/26
f 41/32/27 52/45/27 42/46/28
f 42/35/29 53/47/29 43/37/29
f 43/37/30 54/48/30 44/38/30
f 44/38/31 55/49/32 45/39/31
f 45/39/33 56/50/33 46/40/34
f 46/40/35 57/51/35 47/52/36
f 54/48/37 63/53/37 64/54/37
f 53/55/38 62/56/38 63/57/38
f 52/45/39 61/58/39 62/56/39
f 51/44/40 60/59/40 61/58/40
f 50/43/41 59/60/41 60/59/41
f 49/42/42 58/61/42 59/60/42
f 15/62/43 71/63/43 20/19/43
f 6/64/44 48/1/44 5/3/44
f 8/65/45 66/66/46 9/67/45
f 9/67/47 67/68/48 10/69/47
f 10/69/49 68/70/49 11/71/49
f 11/71/50 69/72/50 12/73/50
f 12/73/51 70/74/51 13/75/51
f 13/76/52 71/63/52 14/77/52
f 37/78/53 18/79/54 19/21/55
f 15/62/56 19/21/57 16/80/57
f 65/81/58 1/82/58 7/41/58
f 65/81/59 26/6/59 66/66/59
f 66/66/60 25/8/60 67/68/60
f 67/68/61 24/10/61 68/70/61
f 68/70/62 23/12/62 69/72/62
f 69/83/63 22/15/63 70/84/63
f 70/84/64 21/17/64 71/63/64
f 19/21/77 18/79/77 72/105/77
f 48/1/1 38/22/1 4/2/1
f 27/4/2 28/24/2 29/5/2
f 26/6/3 29/5/3 30/7/3
f 25/8/4 30/7/4 31/9/4
f 24/10/5 31/9/5 32/11/5
f 23/13/6 32/36/6 33/14/6
f 22/15/7 33/14/87 34/16/7
f 21/17/8 34/16/8 35/18/8
f 20/19/10 35/18/88 36/20/10
f 38/22/11 28/27/11 3/23/11
f 28/24/12 27/4/12 2/25/12
f 28/27/13 38/22/13 39/28/13
f 29/29/14 39/28/14 40/30/14
f 30/31/15 40/30/15 41/32/15
f 31/34/17 41/139/17 42/35/17
f 32/36/18 42/35/89 43/37/18
f 33/14/19 43/37/19 44/38/19
f 34/16/20 44/38/20 45/39/20
f 35/18/21 45/39/21 46/40/21
f 27/4/23 65/81/23 7/41/23
f 38/22/24 48/1/24 49/42/24
f 39/28/25 49/42/25 50/43/25
f 40/30/26 50/43/26 51/44/26
f 41/32/27 51/44/27 52/45/27
f 42/35/29 52/140/29 53/47/29
f 43/37/30 53/47/30 54/48/30
f 44/38/31 54/48/32 55/49/32
f 45/39/33 55/49/33 56/50/33
f 46/40/35 56/50/35 57/51/35
f 54/48/37 53/47/37 63/53/37
f 53/55/38 52/45/38 62/56/38
f 52/45/39 51/44/39 61/58/39
f 51/44/40 50/43/40 60/59/40
f 50/43/41 49/42/41 59/60/41
f 49/42/42 48/1/42 58/61/42
f 14/77/43 71/63/43 15/62/43
f 71/63/43 21/17/43 20/19/43
f 6/64/44 58/61/44 48/1/44
f 8/65/45 65/81/46 66/66/46
f 9/67/47 66/66/48 67/68/48
f 10/69/49 67/68/49 68/70/49
f 11/71/50 68/70/50 69/72/50
f 12/73/51 69/72/51 70/74/51
f 13/76/52 70/84/52 71/63/52
f 19/21/55 36/20/54 37/78/53
f 36/20/54 46/40/54 37/78/53
f 46/40/54 47/52/54 37/78/53
f 15/62/56 20/19/90 19/21/57
f 65/81/58 8/65/58 1/82/58
f 65/81/59 27/4/59 26/6/59
f 66/66/60 26/6/60 25/8/60
f 67/68/61 25/8/61 24/10/61
f 68/70/62 24/10/91 23/12/62
f 69/83/63 23/13/63 22/15/63
f 70/84/64 22/15/64 21/17/64
f 17/146/77 16/80/77 72/105/77
f 16/80/77 19/21/77 72/105/77
usemtl Material.001
f 74/85/65 76/86/65 75/87/65
usemtl Hall.002
f 82/88/66 80/89/67 79/90/68
f 88/91/69 87/92/69 86/93/69
f 95/97/71 94/98/72 107/99/71
f 107/99/73 105/100/73 103/101/74
f 101/102/75 103/103/75 106/104/75
f 105/100/76 106/104/76 103/101/76
f 89/109/78 91/110/78 92/111/78
f 110/115/70 112/116/70 111/117/80
f 114/118/81 111/119/81 99/120/81
f 82/88/82 84/121/82 117/122/82
f 91/110/83 93/123/83 92/111/83
f 107/99/71 108/142/71 102/143/71
f 108/142/71 109/144/71 102/143/71
f 107/99/71 102/143/71 95/97/71
f 95/97/71 93/123/71 94/98/72
f 104/145/73 108/142/92 103/101/74
f 108/142/92 107/99/73 103/101/74
f 89/109/78 90/149/78 91/110/78
f 114/150/80 101/102/80 110/115/70
f 101/102/80 106/104/70 110/115/70
f 110/115/70 113/151/70 73/152/70
f 112/116/70 115/153/70 111/117/80
f 111/117/80 114/150/80 110/115/70
f 110/115/70 73/152/70 112/116/70
f 91/110/83 94/98/83 93/123/83
usemtl (null).001
f 84/106/70 83/107/70 78/108/70
f 98/112/79 96/113/79 95/114/79
f 102/124/65 109/125/65 100/126/65
f 97/127/65 99/128/65 116/129/65
f 78/108/84 85/130/84 77/131/84
f 78/108/70 81/147/70 84/106/70
f 81/147/70 117/148/70 84/106/70
usemtl Tower2.002
f 120/132/70 118/133/70 119/134/70
f 119/134/70 122/154/70 120/132/70
f 122/154/70 121/155/70 120/132/70
usemtl Tower1.001
f 125/94/70 124/95/70 123/96/70
f 125/94/70 126/141/70 124/95/70
usemtl roof3.001
f 126/135/85 128/136/85 124/95/85
f 129/137/86 128/136/86 127/138/86
