# Blender 5.0.0
# www.blender.org
mtllib project_face_fail.mtl
o roof.001
v 1.810097 7.547472 -0.749768
v 0.749767 7.547472 -1.810099
v 1.686530 7.547472 -0.698585
v 0.698583 7.547472 -1.686531
v 1.686530 7.405853 -0.698585
v 0.698583 7.405853 -1.686531
v -0.018536 6.739447 0.145921
v 1.981464 6.739447 0.145921
v -0.018536 6.739447 -1.854079
v 1.981464 6.739447 -1.854079
v 1.279932 7.547472 -1.279933
v 1.192557 7.547472 -1.192558
v 1.014850 7.547472 -1.545016
v 0.945570 7.547472 -1.439544
v 1.439543 7.547472 -0.945572
v 1.545015 7.547472 -1.014851
v 1.412473 7.547472 -1.147392
v 1.316050 7.547472 -1.069065
v 0.882308 7.547472 -1.677558
v 0.822077 7.547472 -1.563038
v 1.069064 7.547472 -1.316051
v 1.147391 7.547472 -1.412475
v 1.563037 7.547472 -0.822078
v 1.677556 7.547472 -0.882310
v 1.138840 7.764363 -1.413897
v 1.067040 7.764363 -1.325509
v 1.017344 7.764363 -1.535393
v 0.953838 7.764363 -1.438711
v 1.403208 7.764363 -1.149528
v 1.281712 7.764363 -1.271025
v 1.201618 7.764363 -1.190930
v 1.314820 7.764363 -1.077728
v 0.874475 7.764363 -1.678258
v 0.752979 7.764363 -1.799755
v 0.706061 7.764363 -1.686484
v 0.819263 7.764363 -1.573283
v 1.667573 7.764363 -0.885163
v 1.562597 7.764363 -0.829951
v 1.546077 7.764363 -1.006659
v 1.449395 7.764363 -0.943153
v 1.686530 7.405853 -0.035968
v 0.157304 7.405853 -1.686531
vn -0.0000 1.0000 -0.0000
vn 0.7757 0.0347 0.6301
vn -0.8353 0.0339 -0.5487
vn -0.7067 0.0348 -0.7067
vn 0.6301 0.0346 0.7757
vn -0.9234 0.0319 -0.3825
vn 0.8846 0.0335 0.4652
vn 0.8846 0.0334 0.4652
vn 0.4652 0.0331 0.8846
vn -0.5487 0.0342 -0.8353
vn -0.7052 0.0083 0.7089
vn -0.7071 0.0020 0.7071
vn -0.8353 0.0340 -0.5487
vn 0.4652 0.0330 0.8846
vn -0.7100 0.0023 0.7042
vn -0.7069 0.0242 0.7069
vn -0.7063 0.0201 0.7076
vn -0.0063 -0.0083 0.9999
vn -0.7071 -0.0000 0.7071
vt 0.572480 1.277092
vt 1.277093 0.821882
vt 0.821882 1.277092
vt 0.572174 3.321344
vt 0.494074 3.310869
vt 0.520884 3.270054
vt -2.102996 3.386249
vt -2.174588 3.395851
vt -2.130781 3.352045
vt -2.684292 3.396827
vt -2.759094 3.384015
vt -2.731308 3.349811
vt 1.060095 2.659344
vt 0.994922 2.662527
vt 1.038728 2.618720
vt -0.006774 3.317843
vt 0.067825 3.310869
vt 0.016534 3.362160
vt 2.689920 2.467695
vt 2.771521 2.453719
vt 2.720231 2.505009
vt -0.507622 3.317872
vt -0.436525 3.321345
vt -0.459833 3.365661
vt 2.452343 2.676275
vt 2.520725 2.682668
vt 2.496150 2.720082
vt -1.259016 1.657439
vt -1.175083 1.691093
vt -1.259016 1.694753
vt -0.856280 2.713295
vt -0.772346 2.750386
vt -0.856280 2.754110
vt -0.856280 2.651528
vt -0.772346 2.617086
vt -0.772346 2.648081
vt -1.259016 1.790332
vt -1.175083 1.759194
vt -1.175083 1.786980
vt -0.856280 2.808873
vt -0.772346 2.852689
vt -0.856280 2.856691
vt -1.259016 1.554858
vt -1.175083 1.595210
vt -1.259016 1.599174
vt 0.928319 3.387152
vt 0.968773 3.471085
vt 0.928149 3.471085
vt -0.856280 2.548947
vt -0.772346 2.521201
vt -0.772346 2.545776
vt -0.911083 2.808873
vt -0.856280 2.617716
vt -0.856280 2.665505
vt 1.000000 0.000000
vt 0.000000 1.000000
vt 0.000000 0.000000
vt 1.277093 0.516572
vt 0.541863 3.358658
vt -2.150012 3.433266
vt -2.715286 3.427823
vt 1.013078 2.706361
vt 0.041015 3.270054
vt 2.737709 2.419906
vt -0.487816 3.270054
vt 2.473709 2.635651
vt -1.175083 1.656889
vt -0.772346 2.712972
vt -1.259016 1.760021
vt -0.772346 2.808856
vt -1.175083 1.554586
vt 0.972636 3.387152
vt -0.856280 2.522137
vt -0.856280 2.761084
vt -0.772346 2.765048
vt -0.911083 2.426558
vt -0.856280 2.426558
vt -0.856280 2.474347
vt -0.772346 2.477394
vt -0.772346 2.669165
vt -0.856280 2.569926
vt -0.772346 2.573279
vt 1.000000 1.000000
s 0
usemtl tower_wndw038M_1SG
f 8/55/1 9/56/1 7/57/1
f 8/55/1 10/83/1 9/56/1
s 1
usemtl lighthouse_lambert15SG
f 42/1/1 5/2/1 6/3/1
f 42/1/1 41/58/1 5/2/1
usemtl lambert16SG
f 17/4/1 15/5/1 16/6/1
f 25/7/1 28/8/1 26/9/1
f 30/10/1 32/11/1 29/12/1
f 33/13/1 35/14/1 36/15/1
f 20/16/1 13/17/1 19/18/1
f 21/19/1 11/20/1 22/21/1
f 3/22/1 24/23/1 23/24/1
f 38/25/1 39/26/1 40/27/1
f 22/28/2 26/29/2 21/30/2
f 14/31/3 27/32/3 13/33/3
f 11/34/4 31/35/4 30/36/4
f 18/37/5 29/38/5 32/39/5
f 4/40/6 34/41/6 2/42/6
f 19/43/7 36/44/8 20/45/7
f 23/46/9 37/47/9 38/48/9
f 16/49/10 40/50/10 39/51/10
f 6/52/11 12/53/12 21/54/12
f 17/4/1 18/59/1 15/5/1
f 25/7/1 27/60/1 28/8/1
f 30/10/1 31/61/1 32/11/1
f 33/13/1 34/62/1 35/14/1
f 20/16/1 14/63/1 13/17/1
f 21/19/1 12/64/1 11/20/1
f 3/22/1 1/65/1 24/23/1
f 38/25/1 37/66/1 39/26/1
f 22/28/2 25/67/2 26/29/2
f 14/31/3 28/68/13 27/32/3
f 11/34/4 12/53/4 31/35/4
f 18/37/5 17/69/5 29/38/5
f 4/40/6 35/70/6 34/41/6
f 19/43/7 33/71/8 36/44/8
f 23/46/9 24/72/14 37/47/9
f 16/49/10 15/73/10 40/50/10
f 20/74/15 36/75/16 35/70/17
f 35/70/17 4/40/18 6/52/11
f 6/52/11 5/76/19 3/77/19
f 23/78/12 38/79/16 40/50/16
f 6/52/11 3/77/19 23/78/12
f 20/74/15 35/70/17 6/52/11
f 26/80/16 28/68/16 14/31/12
f 14/31/12 20/74/15 6/52/11
f 23/78/12 40/50/16 15/73/12
f 18/81/12 32/82/16 31/35/16
f 6/52/11 23/78/12 15/73/12
f 18/81/12 31/35/16 12/53/12
f 6/52/11 15/73/12 18/81/12
f 21/54/12 26/80/16 14/31/12
f 6/52/11 18/81/12 12/53/12
f 21/54/12 14/31/12 6/52/11
