v -0.435572864516762 0.99684497659443 -0.156391709128257
v -0.388254 0.994659782692244 -1.024516
v -0.490455 0.994658655592418 -1.024987
v -0.791599 0.994656499521405 -1.025912
v -1.00231102073058 0.996835802193523 -0.160165311335049
v -0.735793 0.994656658900204 -1.025836
v -0.832292 0.994656603345958 -1.02588
v -0.857044 0.994656964866011 -1.025742
v -0.857029015270464 0.994651230538636 -1.02802013335119
v -0.996598 0.994649 -1.028938
v -0.666011 0.994657079615623 -1.025653
v -0.583673 0.994657749894355 -1.025368
v 0.004552 0.994665 -1.022354
v -0.16537 0.994662592670343 -1.023349
v -0.279153 0.994661102179983 -1.023967
v -0.279197624779744 0.994660465220999 -1.02422006155876
v -0.38825122974867 0.994658722367601 -1.02493724573207
v 0.276304593644381 0.994668953857701 -1.02056685631917
v 0.27773359131735 0.993655775359266 -1.23785855136943
v 0.276304593644381 0.994668953857701 -1.02056685631917
v 0.004552 0.994665 -1.022354
v 0.276285130992283 0.994676861586488 -1.0176073884737
v 0.282060529347936 0.947522615000286 -1.89580762772409
v 0.28156076195871 0.973096180349881 -1.53220028956301
v 0.28304955104375 0.947359355745939 -1.89678994302473
v 0.277779232752526 0.993632858940494 -1.24479873398937
v 0.278648604245728 0.993635941829447 -1.24357407071428
v 0.280372251992168 0.993642054077935 -1.24114600847535
v 0.284659 0.679134999999999 -2.290928
v 0.284606922026807 0.69195242373574 -2.27817462184162
v 0.284733941585029 0.691893107275821 -2.27823280890767
v 0.284717920587741 0.679134999999999 -2.2909276128598
v 0.284575032579681 0.691967315687331 -2.27816001343491
v 0.287427714150196 -0.964359631246102 -1.89465943106245
v 0.285212986063761 -0.964742829388626 -1.89390533574599
v 0.285212983831228 -0.964743001052558 -1.89390499437688
v 1.011479 -0.965124249604155 -1.890541
v 1.013134 -0.838796 -2.141756
v 1.01313146032314 -0.838796439421644 -2.1417551352625
v 1.011478 -0.96552 -1.889754
v 0.285212986063761 -3.009988 -1.89390533574599
v 0.287427714150196 -3.009988 -1.89465943106245
v 0.285218 -3.009988 -1.894672
v 1.011479 -0.68947 -1.890541
v 1.01011986603438 -0.689481767277238 -1.89521892798256
v 1.00854436246933 -0.689481786067443 -1.89522692357969
v 1.011484 -0.689479823943335 -1.894446
v 1.01313146032314 -0.690101989193088 -2.1417551352625
v 1.01310980559123 -0.690101970625764 -2.1417477620179
v 1.011485 0.680130071724674 -1.895212
v 1.01310980559123 0.679509458519241 -2.1417477620179
v 1.01310834847074 0.679509459769478 -2.14174726588126
v 1.01011986603438 0.680130055500102 -1.89521892798256
v 1.011484 0.680132 -1.894446
v -1.6478807705578 -2.07373899977667 0.975239094588922
v -1.46767741173263 -2.07393387407578 0.897903415973122
v -1.64788072966598 -2.07373901543089 0.975232876265761
v -1.411681 -2.0737541084081 0.969335
v -1.0057923292341 -2.07372892219507 0.97950731908706
v -0.999624079686522 -2.07374425377097 0.973419691191165
v -1.009765 -2.0737444111211 0.973353
v -1.00975613692536 -2.07374780411439 0.9720052021274
v -1.46767741173263 0.998156160472188 0.897903415973122
v -1.411681 0.998336 0.969335
v -1.41105155598844 0.998095080994323 0.873603936288032
v -0.48352 0.713325 -2.078882
v -0.484933 0.823219 -1.864545
v -0.382618 0.876913 -1.881529
v -0.484933 0.823219 -1.864545
v -0.48352 0.713325 -2.078882
v -0.57701 0.656269 -2.037767
v -0.826406 0.185914999999998 -1.919563
v -0.851877 0.150590999999999 -1.81006
v -0.826704 0.271756999999999 -1.876098
v 0.299660167870193 -0.689489477072066 -1.89882447331554
v 1.00854436246933 -0.689481786067443 -1.89522692357969
v 0.287427714150196 -0.689478972616694 -1.89465943106245
v 0.282099668250095 0.945572264848384 -1.90175904286863
v 0.28408965592478 0.819264076780618 -2.15150129330872
v 0.28374208887493 0.819264071573096 -2.15150357941102
v 0.283066166943409 0.946024235130147 -1.90085901174597
v 0.285212649273505 0.947001867423885 -1.89891183742325
v 0.285172 0.947009 -1.898898
v 0.284893884977839 0.819264088830209 -2.15149600353836
v -0.583788830331517 0.994655597359751 -1.02622318646247
v -0.666003692368561 0.994654283432974 -1.02676386733112
v -0.666003692368561 0.712970330848223 -1.02676386733112
v -0.583788830331517 0.795189720541583 -1.02622318646247
v -0.662199 0.71106 -1.605133
v 1.00563807022568 0.682369200140079 -1.00563282739253
v 1.00567483163322 0.68235299991568 -1.01198903399798
v 1.00563300150113 0.682369212892284 -1.00562782491837
v 1.00568 0.682353 -1.011989
v -0.57701 0.656269 -2.037767
v -0.575997 0.50119 -2.192065
v -0.65878 0.452357 -2.124991
v -0.575997 0.50119 -2.192065
v -0.48352 0.713325 -2.078882
v -0.851877 0.150591000000001 -1.81006
v -0.85207 0.204277000000001 -1.782876
v -0.826704 0.271757 -1.876098
v 1.005592 -3.0099702769199 -0.998649
v 1.005696 -3.009988 -1.00569
v 1.00563807022568 -3.00998785602821 -1.00563282739253
v 1.00558711095304 -3.0099702772635 -0.998649138584796
v 0.992533 -3.00497337247009 0.986521
v 0.964417554478752 -3.00497380775935 0.986336100356379
v 0.964401 -3.00495803075127 0.992604
v -1.0057923292341 -3.00498888563085 0.97950731908706
v -1.00977 -3.004979 0.983433
v 0.992528 -3.004948 0.996601
v -0.379901 0.575673 -2.293954
v -0.379129 0.345009000000001 -2.410749
v -0.481682 0.327683 -2.35758
v -0.379129 0.345009000000001 -2.410749
v -0.379901 0.575673000000001 -2.293954
v -0.27058 0.599808000000001 -2.326694
v 0.011992 0.81926 -2.153291
v -0.666139251771186 0.994654281266515 -1.02676475882901
v -0.666139251771186 0.712789234614921 -1.02676475882901
v -0.73203 0.617864 -1.597943
v -1.64341766354745 0.996642534997766 0.296544921710113
v -1.405293 0.995891 -0.002205
v -1.64587734853795 0.997583848934723 0.670583425894614
v 0.285956828913193 -0.313470153998856 -2.48727415918225
v 0.285966 -0.313476999999998 -2.487273
v 0.286178 -0.110696999999996 -2.519913
v 0.28617417566849 -0.110697001182128 -2.51991302365676
v -0.729816 0.512729 -1.93384
v -0.730778 0.587166 -1.788659
v -0.660804 0.676856 -1.817632
v -0.729816 0.512729 -1.93384
v -0.78602 0.429168 -1.873143
v 0.998758033257284 0.994723075593917 -0.99884271544091
v 1.00563300150113 0.994705988624501 -1.00562782491837
v 1.00567483163322 0.994689978186783 -1.01198903399798
v 0.392736 0.994680693746911 -1.016021
v 1.00558711095304 0.994723553182041 -0.998649138584796
v 0.285172 0.947009 -1.898898
v 0.283066166943409 0.946024235130147 -1.90085901174597
v 0.283058270272205 0.94701568349325 -1.89892519543398
v 0.27773359131735 0.993655775359266 -1.23785855136943
v 0.00851 0.992678 -1.624112
v 0.004552 0.994665 -1.022354
v 0.00851 0.992678 -1.624112
v -0.161416 0.984371 -1.62445
v 0.282081114408074 0.947018773204549 -1.89893776760792
v 0.282081114408074 0.947018773204549 -1.89893776760792
v 0.282099668250095 0.945572264848383 -1.90175904286863
v -0.730778 0.587166 -1.788659
v -0.78602 0.429168 -1.873143
v -0.786795 0.488834 -1.75677
v -1.64341766354745 -2.07544756684188 0.296544921710113
v -1.64041465013322 -2.0766023920971 -0.162186372478322
v -1.64343164081441 -2.07544752268225 0.296562457514041
v -1.640401 -2.07660240627817 -0.162192
v -1.405293 -2.07619989538326 -0.002205
v -1.00336732175141 -2.07619359141004 0.00046520642112937
v -1.00231102073058 -2.07659796796618 -0.160165311335049
v -1.6404 -2.076608 -0.164414
v 0.013303 0.619418 -2.352126
v 0.284659 0.679135 -2.290928
v 0.285051 0.619422 -2.350339
v 0.284659 0.679135 -2.290928
v 0.013303 0.619418 -2.352126
v 0.011992 0.81926 -2.153291
v -0.269488 0.0869009999999996 -2.491495
v -0.378857 0.083877999999999 -2.451434
v -0.379129 0.345009000000001 -2.410749
v 0.279456 0.994678980473167 -1.016765
v 0.279481226427726 0.994677178405523 -1.01748110218294
v 0.279459177223832 0.994677022469859 -1.01754307054568
v 0.279454 0.99468765479526 -1.013318
v 0.276227229738786 0.994712136752566 -1.00358975762589
v 0.276191 0.994721172848951 -0.999999
v 0.276192 0.994712498527164 -1.003446
v 0.276285130992283 0.994676861586488 -1.0176073884737
v 0.337214845977049 0.99636706783978 -0.345946179695617
v 0.47132730848588 0.996033946036255 -0.478305735134882
v 0.014144 0.367910999999999 -2.479475
v 0.165040998000579 0.213403519052238 -2.50255735164866
v 0.014429 0.0975753685035691 -2.521594
v 0.014434 0.0893600000000006 -2.522874
v 0.27879903278675 0.0969236180252352 -2.51995864522366
v 0.286182 0.0893640000000001 -2.521088
v 0.165040998000579 0.213403519052239 -2.50255735164866
v 0.014144 0.367911000000001 -2.479475
v 0.285893 0.367916000000001 -2.477689
v 0.285956828913193 0.306394645578614 -2.48727415918225
v -0.486564 0.863146 -1.616498
v -0.384335 0.918939 -1.620441
v -0.486564 0.863146 -1.616498
v -0.484933 0.823219 -1.864545
v -0.578295 0.756077 -1.8431
v 0.279456 0.994677 -1.017552
v 0.276368648988395 0.994676865232182 -1.01760592958836
v -0.155543 0.0887409999999996 -2.515579
v -0.269488 0.0869010000000009 -2.491495
v -0.26977 0.357644000000001 -2.449312
v 0.285212649273505 0.947001867423885 -1.89891183742325
v 0.285212666996959 0.947009089081693 -1.89889779361714
v 0.290228223887321 0.947020075737601 -1.89887233993162
v 0.293736351329732 0.945506245277268 -1.90181339169157
v 1.01310834847074 0.821824914868369 -2.14174726588126
v 1.0131085058482 0.821812624505755 -2.14177116653818
v 1.00784420020853 0.820204409665196 -2.14490291585394
v 0.879534618937327 0.842718412396214 -2.10122503847777
v 0.882094140102847 0.844818948913099 -2.09713808720801
v 1.01310995379379 0.679509401770612 -2.14177030515153
v 1.0131085058482 0.679509399603508 -2.14177116653818
v -1.64343164081441 0.996642579110816 0.296562457514041
v -1.64589129634423 0.997583804139586 0.670565633434957
v -1.64587734853795 -2.0745059499916 0.670583425894614
v -1.64589129634423 -2.0745059947683 0.670565633434957
v -1.647895 -2.073739 0.975239
v 0.588294506432241 0.996861157654696 -0.149574331247284
v 0.598846693896252 0.997265512938023 0.0111095677648695
v 0.639292480029575 0.997221823867253 -0.00624666545364552
v 0.51253574779598 0.997264096384555 0.0105361581646295
v 0.433284503247176 0.996858607775772 -0.150606458842154
v 0.527809827630061 0.997342246140027 0.0415931492673844
v -1.792485 0.997113 0.483564
v -1.792485 -2.1234245375008 0.483564
v -3.019936 -2.52607 0.406547
v -0.791424396404592 0.9946522790068 -1.02758868870192
v -0.791587971892765 0.994652276392598 -1.02758976444583
v -0.735783878586869 0.994653168232475 -1.02722277233643
v -0.157962 0.812466 -2.149346
v 0.010341 0.947878 -1.902434
v 0.011992 0.81926 -2.153291
v -0.159598 0.939883 -1.900831
v -1.00797160153449 0.997659306447404 0.700632896186349
v -1.00336732175141 0.995897248269516 0.00046520642112937
v -1.405293 0.995891 -0.002205
v -1.41105155598844 0.998095080994322 0.873603936288032
v -1.00336732175141 0.997240127943122 0.00046520642112937
v -1.00797160153449 0.999002531687841 0.700632896186349
v -0.832991744937243 0.998813426748802 0.625544945376516
v -0.516937771112355 0.997247984027743 0.00369681708906016
v -0.660804 0.676856 -1.817632
v -0.579818 0.793379 -1.611361
v -0.578295 0.756077 -1.8431
v -0.579818 0.793379 -1.611361
v -0.660804 0.676856 -1.817632
v -0.662199 0.71106 -1.605133
v 0.284712 -0.690489 -2.295619
v 0.284717920587741 -0.690477182226051 -2.2909276128598
v 0.312054 -0.690476722118359 -2.290748
v 0.754193629303748 -0.690469271596237 -2.28783947255629
v 0.759748 -0.690481 -2.292496
v 0.285172 0.947009 -1.898898
v -0.998268189145031 0.999685787570805 0.972081522717194
v -0.999624079686522 0.999689157003867 0.973419691191165
v 0.964417554478752 0.999719564710742 0.986336100356379
v 0.964420764492563 0.999716505756698 0.985120716608653
v -1.00908225786456 0.999685618319038 0.972009679066916
v -1.009765 0.999689 0.973353
v 0.278597815018541 0.993652582626366 -1.23854031085443
v 0.276398517677642 0.994668955224246 -1.02056623864064
v 0.279471439703585 0.99466899993365 -1.02054602999016
v 0.280367311832423 0.993646045510238 -1.23993621244204
v -0.904486106511013 0.999167544517258 0.766212801533224
v -0.711267941697409 0.998972582416592 0.688832490878524
v -1.00867724578942 0.99927263475193 0.807939430769185
v -1.00975613692536 0.999685607435544 0.9720052021274
v 0.285014560528483 -0.689428269718579 -1.87450895554443
v 0.285212983831228 -0.689477069767117 -1.89390499437688
v 0.285212 -0.689477069941853 -1.893905
v 0.285212986063761 -0.689477070626201 -1.89390533574599
v 0.285218 -0.689479 -1.894672
v 0.280921 -0.687832405551713 -1.240373
v 0.279476 -0.687279193982493 -1.020546
v 0.279501264066493 -0.687279187317745 -1.02054499064188
v -0.832368611255599 0.99465162465187 -1.02785795575539
v 1.00768556524148 0.947888764574423 -1.8965982200816
v 1.011485 0.9486 -1.895212
v 1.01011986603438 0.948597009652671 -1.89521892798256
v -0.159598 0.939883 -1.900831
v -0.273432 0.916067 -1.893707
v -0.161416 0.984371 -1.62445
v -0.273432 0.916067 -1.893707
v -0.271841 0.792227 -2.135245
v 0.279476 0.994669 -1.020546
v 0.279464267669667 0.994673692932133 -1.01878967014918
v 0.279476 0.994669 -1.020546
v 0.280921 0.993644 -1.240373
v 0.589173963703505 0.819268647793141 -2.149494618811
v 0.577953183841712 0.824063177102629 -2.14008763605387
v 0.733985467374627 0.868257378101773 -2.05167863725677
v 0.879534618937327 0.842718412396214 -2.10122503847777
v 0.850380964342462 0.819272561401415 -2.14777654477885
v 0.561024103817641 0.819268226029849 -2.1496797728963
v -0.481682 0.327683000000001 -2.35758
v -0.481425 0.0797320000000031 -2.396212
v -0.575341 0.306018 -2.290889
v -0.481425 0.0797320000000012 -2.396212
v -0.481682 0.327682999999998 -2.35758
v -0.378857 0.0838779999999999 -2.451434
v -0.490549945814401 0.865022799404576 -1.02561000680342
v -0.490450906102924 0.865096945160373 -1.02560935547499
v -0.579818 0.793379 -1.611361
v -0.490549945814401 0.865022799404576 -1.02561000680342
v -0.579818 0.793379 -1.611361
v -0.583667379344519 0.795311178737132 -1.02622238774769
v 0.00851 0.992678 -1.624112
v -0.504167190705221 0.998457930166767 0.484438635008053
v 0.589857599098023 0.997659713262138 0.167755714041101
v 0.964567250336854 0.999576913377335 0.929657866645661
v -0.159598 0.939883 -1.900831
v -0.8527 0.274388 -1.686888
v -0.85345 0.292858 -1.572139
v -0.827713 0.383863 -1.722614
v 1.01313147588866 -0.690101995146177 -2.14175750160049
v 1.01310995379379 -0.690102027338404 -2.14177030515153
v -0.157962 0.812466 -2.149346
v 0.011992 0.81926 -2.153291
v -0.156664 0.614489 -2.346325
v -0.275212 0.959623 -1.62311
v -0.791686001425793 0.994652274825927 -1.02759040913089
v -0.832279004565541 0.99465162608393 -1.02785736646263
v -0.57701 0.656269 -2.037767
v -0.65967 0.588947 -1.98909
v -0.65967 0.588947 -1.98909
v -0.65878 0.452357 -2.124991
v 0.561024103817641 0.819268226029848 -2.1496797728963
v 0.589173963703505 0.819268647793141 -2.149494618811
v 0.66995275857369 0.750675239694241 -2.21721582356188
v 0.312054 0.679135 -2.290748
v 0.280921 0.993644 -1.240373
v 0.285014560528483 0.948736167667417 -1.87450895554443
v -0.0204011013693502 0.997255755355365 0.00699557473413383
v 0.51253574779598 0.997264096384555 0.0105361581646295
v 0.27879903278675 0.0969236180252386 -2.51995864522366
v 0.28617417566849 0.0969054643277937 -2.51991302365676
v -0.575102 0.0745489999999992 -2.326953
v -0.657981 0.0684340000000028 -2.245066
v -0.6582 0.280454999999999 -2.212033
v 0.964567250336854 0.999576913377335 0.929657866645661
v 0.964624228706041 0.999522624494079 0.908084568852454
v 0.68731724547511 0.997561463053683 0.12872492353426
v 0.278597815018541 0.993652582626366 -1.23854031085443
v 0.280367311832423 0.993646045510238 -1.23993621244204
v -0.65878 0.452357 -2.124991
v -0.729065 0.397073000000001 -2.048914
v -0.65967 0.588947 -1.98909
v -0.729065 0.397072999999999 -2.048914
v -0.65878 0.452357 -2.124991
v -0.728571 0.251514999999999 -2.122616
v 0.759748 -0.690481 -2.292496
v 0.762699268992579 -0.690469147137415 -2.28778351990056
v 0.767725004284644 -0.690469068190586 -2.28775045910245
v 0.754193629303748 -0.690469271596237 -2.28783947255629
v -0.728571 0.251515 -2.122616
v -0.65878 0.452357 -2.124991
v -0.6582 0.280455 -2.212033
v 1.00041998973115 0.816732202345676 -2.14931959825692
v 0.827115562174625 0.782090449641987 -2.18492590154609
v 0.850380964342462 0.819272561401415 -2.14777654477885
v 1.0047202076373 0.81927487383308 -2.14676138727773
v 0.827115562174625 0.782090449641987 -2.18492590154609
v 0.767725004284644 0.679142140093086 -2.28775045910245
v 0.762699268992579 0.679142061342809 -2.28778351990056
v -0.38825122974867 0.92090560886588 -1.02493724573207
v -0.279197624779744 0.961583899688367 -1.02422006155876
v -0.388324035472312 0.920865851399489 -1.02493772453434
v -0.486564 0.863146 -1.616498
v -0.38825122974867 0.92090560886588 -1.02493724573207
v -0.275212 0.959623 -1.62311
v -0.273432 0.916067 -1.893707
v -0.382618 0.876913 -1.881529
v 0.968686820896708 0.999597991140146 0.938034244641216
v 0.968806478282002 0.999552202063699 0.919838605870118
v 0.968686820896708 0.999597991140146 0.938034244641216
v 0.968377 0.999716567676024 0.985147
v 0.964401 -2.073698 0.992604
v 0.964417554478752 -2.07371377900317 0.986336100356379
v -0.729065 0.397073 -2.048914
v -0.785422 0.336461 -1.965383
v -0.785422 0.336460999999999 -1.965383
v -0.729065 0.397073 -2.048914
v -0.785023 0.219786 -2.02446
v -0.490450906102924 0.994657089051094 -1.02560935547499
v -0.490549945814401 0.994657087468278 -1.02561000680342
v -0.388324035472312 0.994658721204048 -1.02493772453434
v -0.827713 0.383863000000001 -1.722614
v -0.852335 0.246934 -1.740434
v -0.8527 0.274388000000001 -1.686888
v -0.852335 0.246934000000001 -1.740434
v -0.827713 0.383863 -1.722614
v -0.827139 0.339964000000001 -1.808234
v 0.739464744398216 0.869851540579816 -2.0485740400233
v 0.733985467374627 0.868257378101773 -2.05167863725677
v 0.141258333938328 0.996854026285393 -0.152550902823669
v 0.279481688989903 0.994606173489402 -1.01755183102141
v 0.279464267669667 0.994673692932133 -1.01878967014918
v 0.279459213600627 0.994668139857202 -1.01755197886138
v 0.279501264066493 0.994599331760273 -1.02054499064188
v 0.279476 0.994669 -1.020546
v 0.28408965592478 0.819264076780618 -2.15150129330872
v 0.284575032579681 0.691967315687331 -2.27816001343491
v 0.28374208887493 0.819264071573095 -2.15150357941102
v 0.284606922026807 0.691952423735741 -2.27817462184162
v 0.276398517677642 0.994668955224246 -1.02056623864064
v 0.276368648988395 0.994676865232182 -1.01760592958836
v -0.161416 0.984371 -1.62445
v -0.165392458644804 0.986349534290227 -1.02347162904232
v -0.165369194361203 0.986354595754331 -1.02347147604622
v -0.271841 0.792227 -2.135245
v -0.159598 0.939883 -1.900831
v -0.481682 0.327683000000001 -2.35758
v -0.575341 0.306018 -2.290889
v -0.482403 0.542576 -2.248771
v -1.647895 -2.99415019708518 0.975239
v -3.019936 -2.52607 0.406547
v -1.647896 -2.994225 0.977555
v -1.6478807705578 -2.99415486328802 0.975239094588922
v -1.009765 0.999689 0.973353
v -0.578295 0.756077 -1.8431
v -0.57701 0.656269 -2.037767
v 0.68731724547511 0.997561463053683 0.12872492353426
v 0.964624228706041 0.999522624494079 0.908084568852454
v 0.966978443209752 0.997279181010467 0.0167257728351103
v -0.575341 0.306018000000001 -2.290889
v -0.6582 0.280455000000001 -2.212033
v -0.575341 0.306018 -2.290889
v -0.575102 0.0745489999999988 -2.326953
v -0.165369194361203 0.986354595754331 -1.02347147604622
v -0.490450906102924 0.865096945160373 -1.02560935547499
v -0.388324035472312 0.920865851399489 -1.02493772453434
v -0.279151337432066 0.994660465960746 -1.02421975715293
v 0.299660167870193 0.947040736558593 -1.89882447331554
v 1.00854436246933 0.948593558487441 -1.89522692357969
v 1.00568 0.994688 -1.012775
v 0.369189253615607 0.994678359175392 -1.01696174719574
v -0.78602 0.429168 -1.873143
v -0.827139 0.339963999999999 -1.808234
v -0.786795 0.488834 -1.75677
v -0.78602 0.429168 -1.873143
v -0.826704 0.271757 -1.876098
v -0.657981 0.0684340000000002 -2.245066
v -0.728376 0.0615100000000021 -2.15222
v -0.728571 0.251515000000001 -2.122616
v 0.992533 0.99972 0.986521
v 0.285218 -0.689479 -1.894672
v 0.290228223887321 -0.689489579403484 -1.89887233993162
v 0.285212666996959 -0.689489644927018 -1.89889779361714
v 0.290228223887321 -0.689489579403484 -1.89887233993162
v 1.014112 -0.690477 -2.290821
v 1.014059 -0.690465198649816 -2.28613
v -0.791587971892765 0.517485076986787 -1.02758976444583
v -0.791686001425793 0.517228935243634 -1.02759040913089
v -0.786795 0.488834 -1.75677
v -0.786795 0.488834 -1.75677
v -0.827139 0.339963999999999 -1.808234
v -0.6582 0.280454999999999 -2.212033
v -0.65878 0.452356999999999 -2.124991
v -0.575997 0.50119 -2.192065
v 0.279459213509596 0.994677000104784 -1.01755195656883
v 0.279459213600627 0.994677000048676 -1.01755197886138
v 0.279456 0.994677 -1.017552
v 0.279481688989903 0.994677000389107 -1.01755183102141
v 0.279481687824506 0.994677000837609 -1.01755165282434
v 1.014059 0.679146 -2.28613
v 1.013141 0.67949697697248 -2.146706
v -1.46767741173263 -2.07393387407578 0.897903415973122
v 0.00851 0.992678 -1.624112
v -0.578295 0.756077 -1.8431
v -1.647895 -2.073739 0.975239
v 0.293736351329732 0.945506245277269 -1.90181339169157
v 0.312054 0.679135 -2.290748
v 1.013134 -0.838796 -2.141756
v 1.014112 -0.690477 -2.290821
v 1.01313147588866 -0.838794522556207 -2.14175750160049
v -0.826704 0.271757 -1.876098
v -0.852335 0.246934 -1.740434
v -0.827139 0.339964 -1.808234
v -0.852335 0.246934000000001 -1.740434
v -0.826704 0.271757000000001 -1.876098
v -0.85207 0.204277 -1.782876
v -0.78602 0.429168 -1.873143
v -0.785422 0.336461 -1.965383
v 0.369189253615607 0.747275554399187 -1.01696174719574
v 0.284893884977839 0.819264088830209 -2.15149600353836
v 0.284733941585029 0.691893107275822 -2.27823280890767
v -0.730778 0.587166 -1.788659
v -0.662199 0.71106 -1.605133
v -0.73203 0.617864 -1.597943
v 0.754193629303748 0.679141928064504 -2.28783947255629
v 0.312054 0.679135 -2.290748
v 0.66995275857369 0.750675239694241 -2.21721582356188
v -0.575341 0.306017999999999 -2.290889
v -0.575997 0.50119 -2.192065
v -0.482403 0.542576 -2.248771
v -0.165392458644804 0.994662284012048 -1.02347162904232
v -0.735783878586869 0.619749418689658 -1.02722277233643
v -0.666139251771186 0.71278923461492 -1.02676475882901
v -0.156664 0.614489 -2.346325
v -0.27058 0.599808 -2.326694
v -0.157962 0.812466 -2.149346
v -0.26977 0.357644 -2.449312
v -0.26977 0.357644 -2.449312
v -0.156664 0.614489 -2.346325
v -0.155831 0.365329999999999 -2.472485
v 0.279459177223832 0.994677022469859 -1.01754307054568
v 0.279481226427726 0.994677178405523 -1.01748110218294
v -0.65967 0.588947 -1.98909
v -0.729065 0.397073 -2.048914
v -0.379901 0.575673 -2.293954
v -0.381102 0.758954 -2.111597
v -0.379901 0.575673 -2.293954
v -0.27058 0.599808 -2.326694
v 0.967411 0.996866976977722 -0.14705
v 0.47132730848588 0.996033946036255 -0.478305735134882
v 0.588294506432241 0.996861157654696 -0.149574331247284
v 0.966986816862475 0.997271201356698 0.0135553187417747
v 0.974766 0.997271320472572 0.013607
v 0.968806478282002 0.999552202063699 0.919838605870118
v 0.992533 0.99972 0.986521
v 0.285212666996959 -3.009988 -1.89889779361714
v 0.285172 -3.009988 -1.898898
v 0.285014560528483 -3.009988 -1.87450895554443
v -0.381102 0.758954 -2.111597
v -0.482403 0.542576 -2.248771
v 1.005592 0.682387 -0.998649
v 1.00558711095304 0.682386999648991 -0.998649138584796
v -0.269488 0.0869010000000001 -2.491495
v -0.379129 0.345009000000001 -2.410749
v -0.26977 0.357644 -2.449312
v -0.165392458644804 0.986349534290227 -1.02347162904232
v -0.279151337432066 0.961601165130185 -1.02421975715293
v -0.785422 0.336461 -1.965383
v -0.78602 0.429168 -1.873143
v -0.729816 0.512729 -1.93384
v -0.826704 0.271757 -1.876098
v -0.785422 0.336461 -1.965383
v -0.826406 0.185915 -1.919563
v -0.826406 0.185915000000001 -1.919563
v -0.785422 0.336461000000001 -1.965383
v -0.785023 0.219785999999999 -2.02446
v -0.271841 0.792227 -2.135245
v -0.583667379344519 0.994655599300735 -1.02622238774769
v -0.27058 0.599808 -2.326694
v -0.583788830331517 0.795189720541583 -1.02622318646247
v -0.583667379344519 0.795311178737132 -1.02622238774769
v -0.73203 0.617864 -1.597943
v -0.791424396404592 0.517845028949053 -1.02758868870192
v -0.735783878586869 0.619749418689658 -1.02722277233643
v -0.791587971892765 0.517485076986787 -1.02758976444583
v -0.786795 0.488834 -1.75677
v -0.791424396404592 0.517845028949053 -1.02758868870192
v 0.010341 0.947878 -1.902434
v 0.286182 0.0893640000000007 -2.521088
v -0.660804 0.676856 -1.817632
v -0.65967 0.588947 -1.98909
v -0.65967 0.588947000000001 -1.98909
v -0.729816 0.512729 -1.93384
v 0.011992 0.81926 -2.153291
v -0.379129 0.345008999999999 -2.410749
v -0.378857 0.083878000000003 -2.451434
v -0.481682 0.327683 -2.35758
v -0.6582 0.280455000000001 -2.212033
v -0.657981 0.0684340000000012 -2.245066
v -0.728571 0.251515000000001 -2.122616
v 0.285051 0.619422 -2.350339
v 0.285893 0.367916 -2.477689
v 0.014144 0.367911 -2.479475
v 1.01313146032314 -3.009988 -2.1417551352625
v 1.013134 -3.009988 -2.141756
v 1.01313147588866 -3.009988 -2.14175750160049
v -0.85345 0.292858 -1.572139
v -0.832279004565541 0.408377229359961 -1.02785736646263
v -0.827713 0.383863 -1.722614
v -0.832368611255599 0.408028462405545 -1.02785795575539
v -0.730778 0.587166 -1.788659
v 1.013141 0.819275 -2.146706
v 1.0047202076373 0.819274873833081 -2.14676138727773
v 1.00784420020853 0.820204409665197 -2.14490291585394
v 1.013141 0.819275 -2.146706
v -0.382618 0.876913 -1.881529
v -0.384335 0.918939 -1.620441
v -0.275212 0.959623 -1.62311
v 0.645578536390213 0.997266279910887 0.0114200322926457
v -0.435572864516762 0.99684497659443 -0.156391709128257
v -0.516937771112355 0.997247984027743 0.00369681708906016
v -0.785023 0.219786 -2.02446
v -0.729065 0.397073 -2.048914
v -0.728571 0.251515 -2.122616
v 1.013141 0.819275 -2.146706
v -0.827713 0.383863 -1.722614
v -0.832279004565541 0.40837722935996 -1.02785736646263
v -0.575341 0.306018000000001 -2.290889
v -0.481425 0.0797320000000018 -2.396212
v -0.575102 0.074549000000001 -2.326953
v 1.014059 0.679146 -2.28613
v -0.155543 0.0887410000000017 -2.515579
v -0.26977 0.357644000000001 -2.449312
v -0.155831 0.365330000000001 -2.472485
v 0.014144 0.367911000000001 -2.479475
v 0.014434 0.0893600000000009 -2.522874
v -0.155831 0.36533 -2.472485
v 0.010341 0.947878 -1.902434
v 0.639292480029575 0.997221823867253 -0.00624666545364552
v 0.013303 0.619418 -2.352126
v 0.014144 0.367911 -2.479475
v -0.279151337432066 0.961601165130185 -1.02421975715293
v -0.384335 0.918939 -1.620441
v -1.411681 0.998336 0.969335
v -1.00867724578942 0.997929356550496 0.807939430769185
v 0.014144 0.367911 -2.479475
v -0.155831 0.36533 -2.472485
v 0.013303 0.619418 -2.352126
v 0.279456 0.994677 -1.017552
v -1.00975613692536 0.998342417131346 0.9720052021274
v -1.00867724578942 0.997929356550496 0.807939430769185
v -0.379901 0.575673 -2.293954
v -0.482403 0.542576 -2.248771
v -0.481682 0.327683 -2.35758
v -0.382618 0.876913 -1.881529
v -0.379129 0.345009 -2.410749
v -0.26977 0.357644 -2.449312
v -0.165369194361203 0.994662284383849 -1.02347147604622
v -0.85345 0.292858 -1.572139
v -0.857029015270464 0.294654478449615 -1.02802013335119
v -0.832368611255599 0.408028462405545 -1.02785795575539
v -0.155543 0.088741 -2.515579
v -0.155831 0.365330000000001 -2.472485
v 0.014434 0.08936 -2.522874
v -0.832991744937243 0.998813426748802 0.625544945376516
v 0.013303 0.619418 -2.352126
v -0.155831 0.36533 -2.472485
v -0.156664 0.614489 -2.346325
f 1 2 3
f 4 5 6
f 7 5 4
f 5 7 8
f 8 9 10
f 11 1 12
f 1 13 14
f 2 1 15
f 1 6 5
f 5 8 10
f 15 1 14
f 6 1 11
f 12 1 3
f 2 15 16
f 16 17 2
f 13 18 19
f 20 21 22
f 23 24 25
f 24 23 26
f 24 26 27
f 24 27 28
f 29 30 31
f 31 32 29
f 30 29 33
f 34 35 36
f 37 38 39
f 40 34 36
f 38 37 40
f 34 40 37
f 41 42 43
f 44 45 46
f 47 48 49
f 45 44 47
f 48 47 44
f 50 51 52
f 50 53 54
f 51 50 54
f 55 56 57
f 58 55 59
f 59 60 61
f 61 62 58
f 56 55 58
f 59 61 58
f 63 64 65
f 66 67 68
f 69 70 71
f 72 73 74
f 75 44 76
f 44 75 77
f 78 79 80
f 79 78 81
f 82 81 83
f 81 82 84
f 81 84 79
f 85 86 11
f 11 12 85
f 87 88 89
f 90 91 92
f 91 90 93
f 94 95 96
f 97 71 98
f 99 100 101
f 102 103 104
f 102 105 106
f 106 107 108
f 108 109 110
f 106 103 102
f 108 110 111
f 103 106 111
f 106 108 111
f 112 113 114
f 115 116 117
f 78 80 118
f 86 119 11
f 120 87 89
f 89 121 120
f 122 65 123
f 65 122 124
f 65 124 63
f 125 126 127
f 127 128 125
f 129 130 131
f 130 132 133
f 134 135 136
f 136 137 134
f 135 134 138
f 139 140 141
f 26 13 142
f 13 26 143
f 144 145 146
f 25 147 23
f 147 25 141
f 148 141 140
f 140 149 148
f 150 151 152
f 153 154 155
f 154 153 156
f 156 153 157
f 157 158 159
f 160 154 156
f 160 157 159
f 157 160 156
f 161 162 163
f 164 165 166
f 167 168 169
f 170 171 172
f 173 174 175
f 171 170 173
f 174 173 170
f 175 174 176
f 176 177 144
f 175 178 179
f 179 171 173
f 175 176 144
f 179 173 175
f 178 175 144
f 180 181 182
f 183 184 185
f 183 180 182
f 184 183 182
f 186 187 188
f 188 189 186
f 67 190 191
f 192 193 194
f 195 170 172
f 170 195 196
f 170 196 174
f 197 198 199
f 200 201 202
f 202 203 200
f 201 200 139
f 204 205 206
f 206 207 208
f 208 204 206
f 209 52 51
f 52 209 210
f 211 124 122
f 124 211 212
f 213 214 215
f 215 57 213
f 216 217 218
f 219 216 220
f 216 219 217
f 217 219 221
f 222 212 211
f 223 155 154
f 223 215 214
f 223 154 224
f 215 223 224
f 4 225 226
f 225 4 6
f 6 227 225
f 228 229 230
f 229 228 231
f 232 233 234
f 234 235 232
f 236 237 238
f 238 239 236
f 240 241 242
f 243 244 245
f 246 247 248
f 248 249 250
f 250 246 248
f 141 25 251
f 252 253 254
f 254 255 252
f 253 252 256
f 256 257 253
f 258 259 260
f 260 261 258
f 259 258 19
f 19 18 259
f 262 256 252
f 252 263 262
f 256 262 264
f 264 265 256
f 239 5 236
f 5 239 1
f 266 267 268
f 268 269 270
f 271 272 273
f 268 270 266
f 267 271 273
f 267 266 271
f 274 8 7
f 8 274 9
f 275 276 204
f 204 208 275
f 276 275 277
f 278 279 280
f 281 231 282
f 283 260 284
f 261 285 286
f 285 261 260
f 287 288 289
f 289 290 291
f 291 287 289
f 288 287 292
f 293 294 295
f 296 297 298
f 192 299 300
f 299 192 301
f 302 303 304
f 229 231 305
f 306 307 221
f 307 306 263
f 255 263 252
f 263 255 308
f 263 308 307
f 146 145 309
f 310 311 312
f 313 49 48
f 49 313 314
f 315 316 317
f 280 281 318
f 7 4 319
f 319 320 7
f 321 322 194
f 323 71 324
f 325 326 327
f 327 328 325
f 329 24 28
f 24 329 330
f 25 330 251
f 330 25 24
f 331 221 332
f 221 331 306
f 181 184 182
f 333 186 189
f 189 334 333
f 335 336 337
f 220 216 179
f 179 178 220
f 307 338 339
f 339 340 307
f 28 341 342
f 341 28 27
f 142 27 26
f 27 142 341
f 343 344 345
f 346 347 348
f 349 350 351
f 350 349 352
f 353 354 355
f 356 357 358
f 358 359 356
f 360 356 361
f 361 362 360
f 191 363 364
f 365 191 366
f 191 365 367
f 368 369 370
f 338 371 372
f 372 339 338
f 373 308 255
f 255 374 373
f 60 375 376
f 375 60 59
f 377 378 132
f 379 380 381
f 3 382 383
f 384 3 2
f 3 384 382
f 385 386 387
f 388 389 390
f 391 208 207
f 207 392 391
f 208 391 275
f 220 178 393
f 394 395 396
f 395 394 397
f 395 397 398
f 399 400 401
f 400 399 402
f 327 326 358
f 358 357 327
f 403 22 404
f 22 403 20
f 405 318 406
f 406 407 405
f 408 409 228
f 410 411 412
f 413 414 415
f 415 416 413
f 17 384 2
f 417 256 265
f 418 193 419
f 420 421 422
f 423 424 97
f 337 425 426
f 13 280 427
f 428 429 192
f 267 269 268
f 16 15 430
f 7 320 274
f 391 431 432
f 432 275 391
f 431 391 392
f 431 203 202
f 203 431 392
f 433 434 137
f 137 136 433
f 435 436 437
f 436 438 439
f 440 441 442
f 374 254 443
f 443 373 374
f 254 374 255
f 444 445 446
f 447 270 77
f 77 75 447
f 448 351 449
f 449 314 313
f 351 448 349
f 449 313 448
f 450 312 451
f 312 450 452
f 389 453 454
f 455 456 457
f 458 459 460
f 461 458 462
f 458 461 459
f 209 463 464
f 464 210 209
f 213 57 465
f 466 26 23
f 467 301 366
f 468 55 57
f 469 288 292
f 469 84 82
f 84 469 292
f 288 469 289
f 32 31 470
f 471 472 473
f 474 475 476
f 477 478 479
f 474 480 481
f 224 154 160
f 332 220 393
f 393 331 332
f 434 461 462
f 462 137 434
f 394 482 397
f 483 328 484
f 328 483 325
f 485 486 131
f 486 485 487
f 488 489 490
f 491 492 493
f 494 15 14
f 15 494 430
f 119 227 6
f 6 11 119
f 495 496 487
f 497 498 499
f 498 317 500
f 501 502 503
f 504 458 460
f 462 504 505
f 504 462 458
f 506 507 132
f 408 508 509
f 510 408 511
f 402 483 484
f 483 402 399
f 512 138 134
f 512 513 514
f 512 515 516
f 516 517 518
f 513 512 134
f 138 516 518
f 138 512 516
f 43 519 520
f 520 521 43
f 68 369 522
f 457 98 523
f 92 524 90
f 524 92 525
f 284 260 403
f 284 404 460
f 404 284 403
f 319 4 226
f 526 527 528
f 529 318 530
f 531 532 533
f 534 535 536
f 537 538 539
f 540 509 279
f 12 541 85
f 383 12 3
f 12 383 541
f 542 408 228
f 360 488 490
f 488 360 362
f 243 543 544
f 543 243 486
f 286 28 342
f 545 546 547
f 548 545 549
f 545 548 550
f 23 147 551
f 551 143 23
f 334 552 333
f 553 418 554
f 516 515 422
f 523 66 509
f 555 556 240
f 29 557 33
f 513 134 137
f 137 462 505
f 505 513 137
f 262 237 264
f 237 262 238
f 558 559 560
f 561 562 563
f 564 565 566
f 567 568 569
f 570 571 572
f 571 570 573
f 545 574 152
f 575 576 577
f 359 578 356
f 579 580 581
f 191 579 193
f 576 290 577
f 290 576 291
f 582 422 515
f 422 582 420
f 177 174 196
f 174 177 176
f 393 178 13
f 13 583 393
f 217 307 340
f 340 582 217
f 307 217 221
f 583 584 331
f 331 393 583
f 585 586 587
f 205 588 206
f 277 275 432
f 589 590 451
f 591 592 593
f 421 517 516
f 516 422 421
f 356 578 594
f 594 361 356
f 595 596 597
f 598 599 600
f 149 166 601
f 601 148 149
f 515 602 582
f 602 515 512
f 602 512 514
f 603 564 604
f 368 364 605
f 364 368 606
f 235 607 608
f 608 232 235
f 609 610 611
f 371 518 372
f 612 396 395
f 613 614 64
f 218 217 582
f 615 412 522
f 616 615 617
f 522 66 618
f 619 511 620
f 494 14 621
f 622 623 624
f 401 400 118
f 625 626 627
f 14 13 621
f 263 306 628
f 628 262 263
f 230 629 317
f 306 331 584
f 584 628 306
f 630 631 161
