v -1.07026683613411 12.964323 3.45752313736739
v -1.129634 12.964323 3.8211196962267
v -1.05655430255017 12.964323 3.87092767616884
v -0.771635334692738 12.964323 3.54292125596016
v -1.129634 12.964323 3.457523
v -1.129634 12.712264 3.457523
v -1.07026683613411 12.712264 3.45752313736739
v -2.091669 12.712264 3.165438
v -1.129634 12.712264 3.8211196962267
v 1.98994 12.712264 4.519892
v 2.04740604513504 12.712264 4.51989203218329
v 2.01866912564259 12.712264 4.51451295710671
v 1.98994 5.381579 4.519892
v 1.98542113832497 5.381579 4.51374497768524
v -1.71108634812868 5.381579 4.51374409126406
v -1.78639486422145 5.381579 4.51386388300448
v -2.09167 5.381579 4.525706
v 2.078477 5.381579 4.525708
v 2.04740604513504 5.381579 4.51989203218329
v 1.98550936362784 12.712264 4.50706097818516
v 1.98215363323911 12.712264 4.50767786209425
v 1.99032680526428 12.712264 4.50920774444467
v 2.03478265917315 12.712264 4.51149597047434
v 2.03822660961169 12.712264 4.51085114900077
v 1.9747100644241 12.712264 4.50628454937316
v -5.576043 12.712264 4.519892
v -2.09167067390974 12.712264 4.29390927477012
v -2.09166900000146 12.712264 3.16543898256417
v 2.078478 12.712264 3.165437
v 0.540906408361004 12.712264 3.63150728141582
v 2.07847318779999 12.712264 3.16544045867275
v 2.07847799999853 12.712264 3.16543900000045
v 2.078478 12.712264 3.165439
v 5.99968 12.712264 3.769136
v 2.07847799983285 12.712264 3.16566437501048
v 2.07847736923391 12.712264 4.02344982577688
v -5.77319549151687 12.712264 -4.29534973157642
v -5.99235935620093 12.712264 -4.29535966752411
v -2.091669 12.712264 3.165437
v -2.091671 12.712264 4.513744
v -2.09166999165127 12.712264 4.51434947800382
v -2.09166999120615 12.712264 4.51374400000024
v 2.02277080700442 12.712264 4.51374498664168
v 2.01456634558283 12.712264 4.51374498467425
v 2.078477 12.712264 4.513745
v 2.0784770164622 12.712264 4.50331494105575
v 2.07847700773568 12.712264 4.50331494268965
v 2.07847700427558 12.712264 4.51989204958427
v -0.693036820608901 12.712264 4.11868556352981
v -1.06673223491635 12.712264 4.22743578687611
v -0.57981023639206 12.712264 4.19585593549887
v -0.933113742832154 12.712264 3.95505945472064
v -2.0916698295949 12.712264 4.29390922001117
v -1.129634 12.712264 3.955059
v 0.814561 12.712264 4.391709
v 0.550455764981368 12.712264 4.40388604620754
v 0.72506948416405 12.712264 4.41644011291002
v 1.362607 12.712264 4.391709
v 0.773692329744616 12.712264 4.10807306677071
v 0.814561 12.712264 4.10542248508296
v 0.381086 12.712264 4.391709
v -0.292448452622371 12.712264 4.00210914107303
v -0.29244869864686 12.712264 4.17721879303861
v 0.381086 12.712264 4.13353597372639
v 0.381086 12.712264 3.80610185987625
v 5.561113 12.712264 4.519894
v 2.07847702627217 12.712264 4.48997073299052
v -2.03807325503821 12.712264 4.51010865049537
v -2.0916699912061 12.712264 4.513743931577
v -0.292449 12.712264 4.391709
v -2.05243141603468 12.712264 4.51428706199154
v -2.05056534085691 12.712264 4.51374400985712
v -2.05243141603468 5.381579 4.51428706199154
v -2.09166999165127 5.381579 4.51434947800382
v 1.98542113832497 11.102194 4.51374497768524
v 1.96485843794918 11.102194 4.50789683989781
v -1.71108634812868 11.102194 4.51374409126406
v 1.98176158591136 11.102194 4.50876687656902
v 1.981103 11.102194 4.507871
v -1.129634 12.964323 3.955059
v -0.933113742832154 12.964323 3.95505945472064
v 2.07847799999853 12.712264 3.16543900000106
v 2.07847736363791 12.712264 4.02344982613981
v 1.55787800942292 12.712264 4.05721385874262
v 2.07847701763269 12.712264 4.48997073457871
v -1.8365596499497 12.712264 4.51394367911921
v -1.83223020347997 12.712264 4.51374406221381
v -1.8365596499497 5.381579 4.51394367911921
v 2.07847598088994 12.712264 3.16544045869315
v 0.230623155291559 12.712264 4.41863250311362
v 0.418827526964615 12.712264 4.42831973447448
v 1.362607 12.712264 4.06987837066557
v 0.814561 12.712264 4.07854775719339
v 1.362607 12.712264 3.68261542781986
v -0.292448 12.712264 3.679952
v -0.697456 12.712264 3.457524
v -0.697456 12.712264 3.56413393978839
v 0.381086 12.712264 3.679952
v -0.697456 12.712264 3.95506
v 0.814561 12.712264 3.679955
v 1.96485843794918 12.712264 4.50789683989781
v 1.981103 12.712264 4.507871
v 2.07847700427558 5.381579 4.51989204958427
v -1.78639486422145 12.712264 4.51386388300448
v -1.78330633480644 12.712264 4.51374407394574
v -5.999689 12.712264 3.769136
v -5.99968605662187 12.712264 -4.29535999968522
v 1.362607 12.712264 3.679955
v -0.697456 12.964323 3.457524
v 5.999683 12.712264 -4.449953
v 5.99968 12.712264 -4.294816
v -5.999686 12.712264 -4.450497
v -5.999693 12.712262 -4.29536
v -1.71108634812868 12.712264 4.51374409126406
v 2.07847658141871 12.712264 3.16543942999997
v -0.697456 12.964323 3.56413393978839
v 1.98542113832497 12.712264 4.51374497768524
v 1.98176158591136 12.712264 4.50876687656902
v -0.697456 12.964323 3.95506
f 1 2 3
f 3 4 1
f 2 1 5
f 6 7 8
f 8 9 6
f 10 11 12
f 13 14 15
f 15 16 17
f 13 18 19
f 18 15 17
f 15 18 13
f 20 21 22
f 20 23 24
f 23 20 22
f 21 20 25
f 26 27 28
f 29 30 31
f 29 32 33
f 34 35 36
f 26 37 38
f 39 26 28
f 30 29 39
f 35 34 33
f 37 26 39
f 29 33 34
f 37 39 29
f 37 29 34
f 40 41 42
f 40 27 26
f 41 40 26
f 12 43 44
f 43 12 11
f 45 46 47
f 45 43 11
f 46 45 48
f 45 11 48
f 49 50 51
f 50 49 52
f 28 9 8
f 9 28 53
f 54 50 52
f 9 53 54
f 50 54 53
f 55 56 57
f 57 58 55
f 59 55 60
f 56 59 61
f 55 59 56
f 51 62 49
f 62 51 63
f 62 63 64
f 64 65 62
f 66 46 48
f 46 66 34
f 46 34 67
f 68 50 53
f 53 69 68
f 50 68 70
f 70 51 50
f 42 71 72
f 71 42 41
f 73 74 17
f 75 76 77
f 76 75 78
f 76 78 79
f 80 81 3
f 33 32 82
f 25 83 84
f 84 58 25
f 25 20 85
f 83 25 85
f 83 85 67
f 67 36 83
f 85 24 47
f 24 85 20
f 72 86 87
f 86 72 71
f 88 73 17
f 36 67 34
f 84 83 35
f 35 82 89
f 89 84 35
f 36 35 83
f 82 35 33
f 61 64 63
f 63 70 61
f 64 61 59
f 56 90 91
f 91 57 56
f 90 56 61
f 61 70 90
f 60 58 92
f 58 60 55
f 46 85 47
f 85 46 67
f 93 92 94
f 92 93 60
f 27 40 69
f 69 53 27
f 95 62 65
f 96 30 39
f 39 28 8
f 39 7 96
f 96 97 95
f 95 65 98
f 7 39 8
f 96 95 98
f 30 96 98
f 99 95 97
f 99 52 49
f 99 62 95
f 62 99 49
f 24 23 45
f 3 2 80
f 72 69 42
f 69 72 68
f 30 65 100
f 65 30 98
f 101 25 57
f 57 91 101
f 25 102 21
f 102 25 101
f 53 28 27
f 18 103 19
f 87 86 104
f 104 105 87
f 88 17 16
f 106 26 38
f 38 107 106
f 100 93 94
f 100 31 30
f 108 100 94
f 31 100 108
f 109 1 4
f 34 110 111
f 111 37 34
f 112 107 38
f 107 112 113
f 104 114 105
f 23 43 45
f 44 23 22
f 23 44 43
f 38 37 112
f 115 82 32
f 82 115 89
f 32 29 115
f 91 114 101
f 114 91 105
f 65 64 59
f 59 93 100
f 100 65 59
f 89 115 31
f 31 108 94
f 94 89 31
f 25 58 57
f 109 4 116
f 117 44 22
f 22 118 117
f 44 117 10
f 10 12 44
f 60 93 59
f 29 31 115
f 4 119 116
f 81 4 3
f 119 4 81
f 84 89 94
f 94 92 84
f 87 70 68
f 68 72 87
f 70 87 90
f 42 69 40
f 51 70 63
f 105 90 87
f 90 105 91
f 24 45 47
f 58 84 92
f 111 112 37
f 112 111 110
f 118 22 21
f 21 102 118
