v 0.79628304500533 0.581508652381183 -1.02843870047596
v 0.865820591557602 0.488464331251842 -1.02861373083284
v 0.984371 0.161417 -1.62445
v 0.865099 0.996621966576315 -1.024987
v 0.79628304500533 0.996598198134732 -1.02843870047596
v 0.795314 0.996618375768479 -1.025368
v 0.865820591557602 0.996598128678241 -1.02861373083284
v 0.36533 0.155832 -2.472485
v 0.088741 0.155544 -2.515579
v 0.178430586252163 0.864691473615555 -1.02688352716715
v 0.178692837352231 0.864671783555385 -1.02688418726958
v -0.878117 0.996623709182225 -1.020599
v -0.808335 0.99661997435952 -1.021332
v -0.809324982216349 0.996599801871199 -1.02439728457971
v -0.8788630043052 0.996599871328164 -1.02422225302587
v -0.999364 0.996636612667069 -1.01835
v -1.05627068434309 1.00335179389345 0.00296079061282271
v -0.974614 0.996632111693913 -1.019093
v -2.076608 1.00223528638556 -0.164413
v -0.999381569498578 0.996599991706248 -1.02391890025427
v -3.010019 0.996602 -1.018858
v -3.004979 1.009769 0.983433
v -2.99329368657908 1.00973051960556 0.977553656757536
v -2.994225 1.00973052052966 0.977556
v -1.930723 1.00335266836664 0.005162
v -2.07489643590075 1.00670618579534 0.515471684697936
v -1.92962224085345 1.00622778969876 0.442378492740697
v 0.961602 0.996630174952277 -1.023967
v 0.983673795717924 0.996634141965103 -1.02341594074441
v 0.920907 0.996625931830768 -1.024516
v 0.712974 0.99661522097946 -1.025653
v 0.619754 0.996612567716418 -1.025836
v 0.517551 0.996610478363391 -1.025912
v 0.408447 0.996608991878045 -1.02588
v -0.307691 0.996608730234005 -1.024226
v 0.178514 0.996607921115423 -1.025499
v -0.725997 0.996616658404201 -1.022031
v -0.632779 0.99661382073619 -1.022683
v -0.933922 0.996627779758546 -1.019848
v -2.959708 1.00223616307726 -0.162191
v 0.294662 0.996608129636602 -1.025742
v -0.530578 0.996611523914081 -1.023274
v -0.421475 0.996609821058755 -1.023791
v -0.985274687780054 0.190723419628781 -1.58403496400609
v -0.901119543187455 0.317515732335958 -1.45671087870705
v -0.98474847954745 0.187158365492554 -1.59197664740417
v -0.914121512336311 0.321156130731363 -1.42980508409091
v -0.63411153298587 0.733716902062005 -1.02483830779768
v -0.727184058270886 0.663835973033631 -1.02460403842631
v 0.409973318115549 0.996598583994161 -1.02746633471504
v 0.518977268383036 0.99659847511727 -1.0277407044802
v 0.409973318115549 0.830514042030253 -1.02746633471504
v 0.518977268383036 0.78967361406504 -1.0277407044802
v -0.934398147083025 0.996599926798573 -1.02408246759567
v -0.974831195749329 0.996599967184492 -1.02398069508155
v -0.309359108097108 0.996599302488105 -1.02565572997671
v -0.423013567855604 0.996599416010084 -1.0253696545881
v -0.308759799369005 0.996599301889494 -1.02565723847429
v -0.957152977949642 0.160686807543403 -1.8939261489585
v -0.794860654991445 0.334697650686545 -1.67659909634618
v -0.702494177410235 0.330640516453032 -1.86773887269573
v -0.715066760291956 0.313877096590167 -1.8946007018566
v -0.969454874675651 0.160082419800922 -1.82279205541485
v -0.958371852291012 0.159614894574218 -1.89392275266759
v -0.98396142091227 0.17877177800127 -1.60385515881664
v -0.87510149258086 0.287953938262492 -1.51055167142996
v 0.995891 1.00334974168278 -0.002205
v 0.999689 1.009765 0.973353
v 0.997113 1.00654414927237 0.483565
v 0.998336 1.00973856345344 0.969336
v -1.9295 1.00654707597178 0.490932
v -1.928277 1.00974148357692 0.976702
v -2.073739 1.00972960717221 0.97524
v 0.994649 0.996598 -1.028938
v 0.986350334214407 0.996625327973267 -1.02476261309761
v 0.986355 0.996634623863898 -1.023349
v -2.52607 3.019936 0.406548
v -2.33524437752969 2.44111038622289 0.646463028803878
v -2.07489643590075 1.64487070803756 0.515471684697936
v -2.076608 1.6404 -0.164413
v -2.99329368657908 1.64789499898824 0.977553656757536
v -2.994225 1.647895 0.977556
v -1.001258 0.161424 -1.61868
v -0.987429364013383 0.198374030907242 -1.55151598119625
v -0.986090811520159 0.194620380605802 -1.57171779381382
v -0.989756468265701 0.200168734560332 -1.51639466598085
v 0.939883 0.159599 -1.900831
v 0.812466 0.157963 -2.149346
v 0.295323656010643 0.856150706117418 -1.02717775433983
v 0.295721349082165 0.855898907511363 -1.02717875535818
v -0.53201776052187 0.789672358021097 -1.02509528421281
v -0.881987520782092 0.29943209587718 -1.49630197906551
v -0.890534324707944 0.309667823406235 -1.47861553877169
v -0.423013567855604 0.830511720239895 -1.0253696545881
v -0.309359108097108 0.855370954202679 -1.02565572997671
v -0.110093 0.155548 -2.514307
v 0.178245698162773 0.864691135724465 -1.02688306179226
v 0.296318868489079 0.855372914866338 -1.02718025935193
v 0.921355265404544 0.386651781741294 -1.02875351508272
v 0.921355265404544 0.996598073208301 -1.02875351508272
v -0.307500784802468 0.996599300631947 -1.02566040749275
v -0.307769155541937 0.996599300900005 -1.02565973198681
v -0.386493 0.155837 -2.469817
v -0.307500784802468 0.856368713811842 -1.02566040749275
v -0.307769155541937 0.856348545403733 -1.02565973198681
v -1.05627068434309 1.40529440241363 0.00296079061282271
v -1.930723 1.405295 0.005162
v -1.27394044996506 1.49215083330078 0.112479056790191
v -0.958161 0.159606 -1.895276
v -0.831998 0.157969 -2.144429
v -0.689479 0.324646457953163 -1.894672
v -0.308046843464214 0.856282601764735 -1.02565903302893
v -0.308361355446804 0.85615019401615 -1.02565824138258
v -0.635014 0.156671 -2.342403
v -2.959708 1.640401 -0.162191
v 0.961787353066142 0.278194559638312 -1.02885528517792
v 0.961787353066142 0.996598032823342 -1.02885528517792
v -0.984142729497906 0.18122811169558 -1.60111879838885
v 0.714142875083639 0.996598280179156 -1.02823194852728
v 0.98633662194837 0.996598008302689 -1.02891707722419
v -0.984392738326355 0.184004273520122 -1.59734559447595
v 0.621070683664604 0.996598373142859 -1.02799767999628
v -1.92962224085345 1.75378742537363 0.442378492740697
v -0.929787648664944 0.317850946767505 -1.39738616033706
v -0.947954648191166 0.303850230519196 -1.3597920426732
v -0.308759799369005 0.855898026635633 -1.02565723847429
v 0.614489 0.156665 -2.346325
v 0.178971450688847 0.864607404842305 -1.02688488855679
v -0.974831195749329 0.278194292164521 -1.02398069508155
v -1.00010077986359 0.163836199101663 -1.25188276425996
v -0.999381569498578 0.165335376779099 -1.02391890025427
v -0.986233709539445 0.227810793121194 -1.28057876728822
v -1.00042720824587 0.163155766549794 -1.35534884173311
v -0.993920244248765 0.193846833830988 -1.45355378180395
v 0.296318868489079 0.99659869751613 -1.02718025935193
v -0.727184058270886 0.996599719826021 -1.02460403842631
v -0.809324982216349 0.581507228848539 -1.02439728457971
v 0.714142875083639 0.663837772757422 -1.02823194852728
v 0.179296228425372 0.86447815946733 -1.02688570604268
v 0.179296228425372 0.996598814402364 -1.02688570604268
v 0.178971450688847 0.996598814726763 -1.02688488855679
v -0.308046843464214 0.99659930117737 -1.02565903302893
v -0.308361355446804 0.996599301491515 -1.02565824138258
v -0.934398147083025 0.38665202300201 -1.02408246759567
v -0.967580455787533 0.274872151194048 -1.31917912148271
v -0.8788630043052 0.488462681052219 -1.02422225302587
v -0.63411153298587 0.996599626861985 -1.02483830779768
v -0.53201776052187 0.996599524887217 -1.02509528421281
v 0.997113 1.792485 0.483565
v -1.928277 1.411684 0.976702
v 0.998336 1.411681 0.969336
v -1.9295 1.792488 0.490932
v -0.958371852291012 -0.28521113887354 -1.89392275266759
v -0.964743 -0.285211 -1.893905
v -0.969454874675651 -0.284745540435763 -1.82279205541485
v 0.178245698162773 0.99659881545167 -1.02688306179226
v 0.178430586252163 0.996598815266997 -1.02688352716715
v 0.995891 1.405293 -0.002205
v -2.073739 1.647894 0.97524
v 0.98633662194837 0.165333382843703 -1.02891707722419
v 0.178692837352231 0.996598815005052 -1.02688418726958
v 0.295721349082165 0.996598698112953 -1.02717875535818
v 0.295323656010643 0.996598698510183 -1.02717775433983
v -1.008424 -0.280896 -1.234659
v -1.00010077986359 -0.281008761241623 -1.25188276425996
v -1.00042720824587 -0.281685958023376 -1.35534884173311
v 0.621070683664604 0.733718846857002 -1.02799767999628
f 1 2 3
f 4 5 6
f 5 4 7
f 8 9 10
f 10 11 8
f 12 13 14
f 14 15 12
f 16 17 18
f 17 16 19
f 19 20 21
f 22 23 24
f 25 26 27
f 28 17 29
f 17 28 30
f 17 4 6
f 17 31 32
f 17 33 34
f 35 17 36
f 37 17 38
f 13 17 37
f 39 17 12
f 18 17 39
f 40 22 24
f 26 25 19
f 4 17 30
f 17 6 31
f 17 34 41
f 38 17 42
f 12 17 13
f 22 40 21
f 17 19 25
f 17 32 33
f 42 17 43
f 19 21 40
f 36 17 41
f 43 17 35
f 20 19 16
f 44 45 46
f 45 44 47
f 48 47 49
f 47 48 45
f 33 50 34
f 50 33 51
f 52 53 3
f 18 39 54
f 54 55 18
f 43 56 57
f 56 43 35
f 56 35 58
f 59 60 61
f 61 62 59
f 63 59 64
f 60 63 65
f 65 66 60
f 63 60 59
f 67 29 17
f 68 69 70
f 26 71 27
f 72 26 73
f 73 23 22
f 74 75 76
f 29 67 76
f 26 72 71
f 74 76 67
f 72 73 22
f 68 74 67
f 68 72 22
f 69 68 67
f 72 68 70
f 29 76 75
f 77 78 79
f 79 80 77
f 81 77 82
f 77 81 78
f 83 84 85
f 84 83 86
f 87 88 89
f 89 90 87
f 91 92 93
f 92 91 94
f 66 94 95
f 94 66 92
f 9 96 97
f 97 10 9
f 52 3 98
f 2 99 3
f 30 7 4
f 7 30 100
f 101 102 35
f 103 104 96
f 104 103 105
f 106 107 108
f 83 85 44
f 62 109 59
f 109 62 110
f 110 62 111
f 112 61 113
f 111 112 114
f 114 110 111
f 61 112 111
f 115 82 77
f 99 116 3
f 28 100 30
f 100 28 117
f 118 65 83
f 66 118 92
f 118 66 65
f 6 5 119
f 119 31 6
f 93 48 91
f 48 93 45
f 29 120 117
f 117 28 29
f 120 29 75
f 120 75 74
f 92 118 121
f 121 93 92
f 98 3 87
f 87 90 98
f 97 96 104
f 16 55 20
f 55 16 18
f 46 45 93
f 93 121 46
f 32 122 51
f 51 33 32
f 122 32 31
f 31 119 122
f 107 123 108
f 83 44 46
f 124 85 84
f 84 125 124
f 85 124 47
f 47 44 85
f 95 126 60
f 60 66 95
f 127 11 128
f 11 127 8
f 129 130 131
f 130 129 132
f 133 132 134
f 132 133 130
f 34 135 41
f 135 34 50
f 136 14 13
f 13 37 136
f 124 49 47
f 49 124 137
f 109 64 59
f 111 62 61
f 138 1 3
f 127 139 88
f 139 127 128
f 140 141 36
f 35 142 143
f 142 35 102
f 144 145 132
f 132 129 144
f 145 144 146
f 146 125 145
f 137 125 146
f 125 137 124
f 37 147 136
f 147 37 38
f 148 38 42
f 38 148 147
f 149 150 151
f 150 149 152
f 115 77 80
f 153 154 155
f 35 156 101
f 156 35 36
f 156 36 157
f 133 134 83
f 108 123 152
f 152 149 108
f 58 35 143
f 57 148 42
f 42 43 57
f 113 61 60
f 60 126 113
f 83 134 86
f 106 149 158
f 149 106 108
f 78 81 159
f 160 3 116
f 86 125 84
f 125 86 145
f 36 161 157
f 161 36 141
f 41 135 162
f 140 41 163
f 41 140 36
f 78 159 79
f 88 139 89
f 164 165 166
f 167 138 3
f 83 46 121
f 163 41 162
f 15 39 12
f 39 15 54
f 145 86 134
f 134 132 145
f 83 121 118
f 3 53 167
f 105 103 114
f 114 112 105
f 83 65 63
