v 0.698583 7.547472 -1.686531
v 0.706061 7.764363 -1.686484
v 0.752979 7.764363 -1.799755
v 0.698583 7.405853 -1.686531
v 0.822077 7.547472 -1.563038
v 1.279932 7.547472 -1.279933
v 1.201618 7.764363 -1.19093
v 1.281712 7.764363 -1.271025
v 1.192557 7.547472 -1.192558
v 0.945570317725638 7.54748033476432 -1.43954396798918
v 0.945574084469796 7.54747929303317 -1.43954016553459
v 0.945574667974484 7.54748033491112 -1.43953961774537
v 0.945570278010009 7.54747929292078 -1.43954397199053
v 0.94557 7.54747199999999 -1.439544
v -0.018536 6.739447 -1.854079
v 0.261809154998063 6.739447 -1.57373384500194
v 0.157304 6.739447 -1.686531
v 0.698583 6.739447 -1.686531
v 0.749767 6.739447 -1.810099
v 0.882308 6.739447 -1.677558
v 0.752979 6.739447 -1.799755
v 0.874475 6.739447 -1.678258
v 1.147391 6.739447 -1.412475
v 1.017344 6.739447 -1.535393
v 1.13884 6.739447 -1.413897
v 1.279932 6.739447 -1.279933
v 1.281712 6.739447 -1.271025
v 1.403208 6.739447 -1.149528
v 1.545015 6.739447 -1.014851
v 1.546077 6.739447 -1.006659
v 1.667573 6.739447 -0.885163
v 1.810097 6.739447 -0.749768
v 1.68653 6.739447 -0.698585
v 1.68653 6.739447 -0.149013
v 1.01485 6.739447 -1.545016
v 1.412473 6.739447 -1.147392
v 1.677556 6.739447 -0.88231
v 1.981464 6.739447 0.145921
v 1.981464 6.739447 -1.854079
v -0.018536 6.739447 0.145921
v 1.68653 6.739447 -0.035968
v 1.810097 7.547472 -0.749768
v 1.677556 7.547472 -0.88231
v 1.68653 7.547472 -0.698585
v 0.918127074068758 7.547472 -1.46698714815376
v 0.945570113270842 7.547472 -1.43954417244374
v 0.914696718747096 7.547472 -1.47041753125316
v 0.945570099112024 7.547472 -1.43954415088833
v 0.945570122339292 7.54747236969225 -1.4395441633753
v 0.94557010704692 7.54747232348084 -1.43954414295344
v 0.874475 7.764363 -1.678258
v 0.945578169066417 7.54748658629278 -1.43953633095012
v 0.945576535215194 7.54748366896649 -1.43953786479571
v 1.00731712498362 7.54747200000001 -1.37779737501739
v 1.02789944444504 7.54747200000001 -1.35721522222252
v 0.945570556020082 7.54748658584319 -1.43954394398104
v 0.945570444816225 7.54748366867876 -1.43954395518482
v 1.412473 7.547472 -1.147392
v 1.439543 7.547472 -0.945572
v 1.545015 7.547472 -1.014851
v 1.31605 7.547472 -1.069065
v 1.069064 7.547472 -1.316051
v 1.147391 7.547472 -1.412475
v 1.06704 7.764363 -1.325509
v 0.261809154998063 7.405853 -1.57373384500194
v 1.68653 7.405853 -0.149013
v 1.68653 7.405853 -0.698585
v 0.157304 7.405853 -1.686531
v 1.68653 7.405853 -0.035968
v 1.562597 7.764363 -0.829951
v 1.449395 7.764363 -0.943153
v 1.563037 7.547472 -0.822078
v 1.546077 7.764363 -1.006659
v 1.017344 7.764363 -1.535393
v 0.945570264298284 7.547472 -1.4395444023682
v 0.945570285457986 7.54747286261415 -1.43954438120855
v 1.01485 7.547472 -1.545016
v 0.883823499989717 7.547472 -1.50129100001028
v 0.91028622448658 7.54747200001669 -1.4748280612282
v 0.904405611111261 7.54747200001669 -1.48070872222252
v 0.98673472221719 7.54747200000001 -1.39837961111659
v 0.994967719994196 7.54747200000001 -1.39014668000678
v 0.945575445991586 7.5474817241011 -1.43953888734955
v 0.98673472221719 7.45305939700148 -1.39837961111659
v 0.994967719994196 7.46250073752507 -1.39014668000678
v 0.819263 7.764363 -1.573283
v 0.945570370680276 7.54748172390129 -1.43954396265401
v 1.00731712498362 7.47666264337544 -1.37779737501739
v 1.02789944444504 7.5002657940855 -1.35721522222252
v 0.882308 7.547472 -1.677558
v 1.31482 7.764363 -1.077728
v 1.403208 7.764363 -1.149528
v 0.896172759991355 7.547472 -1.48894164000897
v 0.945570198223928 7.547472 -1.43954430177647
v 0.945570214093717 7.5474726469613 -1.43954428590672
v 0.945580892193942 7.54749144857856 -1.43953377450123
v 0.980854061224844 7.44631564167683 -1.40426022448994
v 0.945570171275082 7.54747251756937 -1.43954422872552
v 0.945570158579245 7.547472 -1.43954424142134
v 0.945570741359665 7.54749144777927 -1.4395439253081
v 0.980854061224844 7.54747200000001 -1.40426022448994
v 0.945570132149428 7.547472 -1.43954420118453
v 0.953838 7.764363 -1.438711
v 1.13884 7.764363 -1.413897
v 0.749767 7.547472 -1.810099
v 0.945570142729296 7.54747243130799 -1.43954419060468
v 0.980854061224844 7.405853 -1.40426022448994
v 0.94557 7.405853 -1.439544
v 1.667573 7.764363 -0.885163
f 1 2 3
f 2 4 5
f 6 7 8
f 7 6 9
f 10 11 12
f 11 10 13
f 11 13 14
f 15 16 17
f 17 18 19
f 20 21 22
f 23 24 25
f 26 27 28
f 29 30 31
f 32 33 34
f 15 17 19
f 21 20 19
f 24 23 35
f 26 28 36
f 29 31 37
f 32 34 38
f 39 15 19
f 39 35 23
f 39 26 36
f 32 38 39
f 39 19 20
f 39 36 29
f 37 32 39
f 35 39 20
f 39 29 37
f 26 39 23
f 16 15 40
f 38 34 41
f 41 16 40
f 40 38 41
f 42 43 44
f 45 46 47
f 46 45 48
f 49 48 50
f 48 49 46
f 3 2 51
f 52 53 54
f 54 55 52
f 53 52 56
f 56 57 53
f 58 59 60
f 59 58 61
f 62 63 64
f 63 62 6
f 65 66 67
f 67 68 65
f 66 65 69
f 70 71 72
f 71 70 73
f 14 45 4
f 45 14 48
f 74 75 76
f 75 74 77
f 78 77 5
f 77 78 75
f 4 79 80
f 79 4 47
f 5 4 78
f 81 82 83
f 83 12 81
f 59 84 72
f 84 59 85
f 2 86 51
f 86 2 5
f 7 9 61
f 53 83 82
f 82 54 53
f 83 53 57
f 57 87 83
f 61 88 85
f 85 59 61
f 88 61 9
f 9 89 88
f 5 90 86
f 90 5 77
f 8 91 92
f 91 8 7
f 60 59 71
f 93 75 78
f 75 93 94
f 76 94 95
f 94 76 75
f 92 91 61
f 73 60 71
f 55 96 52
f 96 55 62
f 96 62 64
f 50 48 14
f 72 84 97
f 97 44 72
f 95 98 57
f 57 56 95
f 99 95 94
f 95 99 98
f 76 56 100
f 56 76 95
f 62 9 6
f 9 62 89
f 4 93 78
f 93 4 80
f 61 58 92
f 101 12 11
f 12 101 81
f 99 80 79
f 79 102 99
f 80 99 94
f 94 93 80
f 103 64 104
f 96 103 100
f 103 96 64
f 105 1 3
f 12 87 10
f 87 12 83
f 14 13 50
f 87 98 106
f 98 87 57
f 101 11 14
f 104 74 103
f 68 107 108
f 108 4 68
f 107 68 67
f 52 96 100
f 100 56 52
f 106 49 10
f 10 87 106
f 46 106 102
f 106 46 49
f 4 45 47
f 63 104 64
f 47 102 79
f 102 47 46
f 61 91 7
f 103 76 100
f 76 103 74
f 98 99 102
f 102 106 98
f 86 90 51
f 71 59 72
f 43 72 44
f 72 43 109
f 49 50 13
f 13 10 49
f 70 72 109
f 109 73 70
